<?xml version="1.0" encoding="UTF-8"?>
<!DOCTYPE svg PUBLIC "-//W3C//DTD SVG 1.1//EN" "http://www.w3.org/Graphics/SVG/1.1/DTD/svg11.dtd">
<svg width="160mm" height="90mm" viewBox="0 0 16000 9000" version="1.1" baseProfile="tiny" xmlns="http://www.w3.org/2000/svg" stroke-width="28.222" stroke-linejoin="round" xml:space="preserve">
 <path fill="rgb(255,255,255)" stroke="none" d="M 8000,8999 L 0,8999 0,0 15999,0 15999,8999 8000,8999 Z"/>
 <path fill="none" stroke="rgb(179,179,179)" stroke-linejoin="round" d="M 7314,8172 L 2138,8172 2138,379 12490,379 12490,8172 7314,8172 Z"/>
 <path fill="none" stroke="rgb(179,179,179)" stroke-linejoin="round" d="M 12490,8171 L 2138,8171"/>
 <path fill="none" stroke="rgb(179,179,179)" stroke-linejoin="round" d="M 12490,6872 L 2138,6872"/>
 <path fill="none" stroke="rgb(179,179,179)" stroke-linejoin="round" d="M 12490,5573 L 2138,5573"/>
 <path fill="none" stroke="rgb(179,179,179)" stroke-linejoin="round" d="M 12490,4275 L 2138,4275"/>
 <path fill="none" stroke="rgb(179,179,179)" stroke-linejoin="round" d="M 12490,2976 L 2138,2976"/>
 <path fill="none" stroke="rgb(179,179,179)" stroke-linejoin="round" d="M 12490,1677 L 2138,1677"/>
 <path fill="none" stroke="rgb(179,179,179)" stroke-linejoin="round" d="M 12490,378 L 2138,378"/>
 <path fill="none" stroke="rgb(179,179,179)" stroke-linejoin="round" d="M 2138,8321 L 2138,8171"/>
 <path fill="none" stroke="rgb(179,179,179)" stroke-linejoin="round" d="M 2138,8321 L 2138,8171"/>
 <path fill="none" stroke="rgb(179,179,179)" stroke-linejoin="round" d="M 12490,8321 L 12490,8171"/>
 <path fill="none" stroke="rgb(179,179,179)" stroke-linejoin="round" d="M 12490,8321 L 12490,8171"/>
 <path fill="none" stroke="rgb(179,179,179)" stroke-linejoin="round" d="M 2138,8171 L 12490,8171"/>
 <path fill="none" stroke="rgb(179,179,179)" stroke-linejoin="round" d="M 1988,8171 L 2138,8171"/>
 <path fill="none" stroke="rgb(179,179,179)" stroke-linejoin="round" d="M 1988,8171 L 2138,8171"/>
 <path fill="none" stroke="rgb(179,179,179)" stroke-linejoin="round" d="M 1988,6872 L 2138,6872"/>
 <path fill="none" stroke="rgb(179,179,179)" stroke-linejoin="round" d="M 1988,6872 L 2138,6872"/>
 <path fill="none" stroke="rgb(179,179,179)" stroke-linejoin="round" d="M 1988,5573 L 2138,5573"/>
 <path fill="none" stroke="rgb(179,179,179)" stroke-linejoin="round" d="M 1988,5573 L 2138,5573"/>
 <path fill="none" stroke="rgb(179,179,179)" stroke-linejoin="round" d="M 1988,4275 L 2138,4275"/>
 <path fill="none" stroke="rgb(179,179,179)" stroke-linejoin="round" d="M 1988,4275 L 2138,4275"/>
 <path fill="none" stroke="rgb(179,179,179)" stroke-linejoin="round" d="M 1988,2975 L 2138,2975"/>
 <path fill="none" stroke="rgb(179,179,179)" stroke-linejoin="round" d="M 1988,2975 L 2138,2975"/>
 <path fill="none" stroke="rgb(179,179,179)" stroke-linejoin="round" d="M 1988,1677 L 2138,1677"/>
 <path fill="none" stroke="rgb(179,179,179)" stroke-linejoin="round" d="M 1988,1677 L 2138,1677"/>
 <path fill="none" stroke="rgb(179,179,179)" stroke-linejoin="round" d="M 1988,378 L 2138,378"/>
 <path fill="none" stroke="rgb(179,179,179)" stroke-linejoin="round" d="M 1988,378 L 2138,378"/>
 <path fill="none" stroke="rgb(179,179,179)" stroke-linejoin="round" d="M 2138,8171 L 2138,378"/>
 <path fill="rgb(0,69,134)" stroke="none" d="M 2655,8171 L 3690,8171 3690,5760 2655,5760 2655,8171 Z"/>
 <path fill="rgb(255,66,14)" stroke="none" d="M 3690,8171 L 4726,8171 4726,1274 3690,1274 3690,8171 Z"/>
 <path fill="rgb(255,211,32)" stroke="none" d="M 4726,8171 L 5761,8171 5761,1232 4726,1232 4726,8171 Z"/>
 <path fill="rgb(87,157,28)" stroke="none" d="M 5761,8171 L 6796,8171 6796,6204 5761,6204 5761,8171 Z"/>
 <path fill="rgb(126,0,33)" stroke="none" d="M 6796,8171 L 7832,8171 7832,2253 6796,2253 6796,8171 Z"/>
 <path fill="rgb(131,202,255)" stroke="none" d="M 7832,8171 L 8866,8171 8866,4962 7832,4962 7832,8171 Z"/>
 <path fill="rgb(49,64,4)" stroke="none" d="M 8866,8171 L 9901,8171 9901,5391 8866,5391 8866,8171 Z"/>
 <path fill="rgb(174,207,0)" stroke="none" d="M 9901,8171 L 10937,8171 10937,5879 9901,5879 9901,8171 Z"/>
 <path fill="rgb(75,31,111)" stroke="none" d="M 10937,8171 L 11972,8171 11972,2934 10937,2934 10937,8171 Z"/>
 <text class="TextShape"><tspan class="TextParagraph" font-family="Liberation Sans, sans-serif" font-size="353px" font-weight="400"><tspan class="TextPosition" x="5766" y="8739"/><tspan class="TextPosition" x="5766" y="8739"><tspan fill="rgb(0,0,0)" stroke="none">droppedFrameCount</tspan></tspan></tspan></text>
 <text class="TextShape"><tspan class="TextParagraph" font-family="Liberation Sans, sans-serif" font-size="353px" font-weight="400"><tspan class="TextPosition" x="1703" y="8292"/><tspan class="TextPosition" x="1703" y="8292"><tspan fill="rgb(0,0,0)" stroke="none">0</tspan></tspan></tspan></text>
 <text class="TextShape"><tspan class="TextParagraph" font-family="Liberation Sans, sans-serif" font-size="353px" font-weight="400"><tspan class="TextPosition" x="1332" y="6993"/><tspan class="TextPosition" x="1332" y="6993"><tspan fill="rgb(0,0,0)" stroke="none">100</tspan></tspan></tspan></text>
 <text class="TextShape"><tspan class="TextParagraph" font-family="Liberation Sans, sans-serif" font-size="353px" font-weight="400"><tspan class="TextPosition" x="1332" y="5694"/><tspan class="TextPosition" x="1332" y="5694"><tspan fill="rgb(0,0,0)" stroke="none">200</tspan></tspan></tspan></text>
 <text class="TextShape"><tspan class="TextParagraph" font-family="Liberation Sans, sans-serif" font-size="353px" font-weight="400"><tspan class="TextPosition" x="1332" y="4395"/><tspan class="TextPosition" x="1332" y="4395"><tspan fill="rgb(0,0,0)" stroke="none">300</tspan></tspan></tspan></text>
 <text class="TextShape"><tspan class="TextParagraph" font-family="Liberation Sans, sans-serif" font-size="353px" font-weight="400"><tspan class="TextPosition" x="1332" y="3095"/><tspan class="TextPosition" x="1332" y="3095"><tspan fill="rgb(0,0,0)" stroke="none">400</tspan></tspan></tspan></text>
 <text class="TextShape"><tspan class="TextParagraph" font-family="Liberation Sans, sans-serif" font-size="353px" font-weight="400"><tspan class="TextPosition" x="1332" y="1797"/><tspan class="TextPosition" x="1332" y="1797"><tspan fill="rgb(0,0,0)" stroke="none">500</tspan></tspan></tspan></text>
 <text class="TextShape"><tspan class="TextParagraph" font-family="Liberation Sans, sans-serif" font-size="353px" font-weight="400"><tspan class="TextPosition" x="1332" y="498"/><tspan class="TextPosition" x="1332" y="498"><tspan fill="rgb(0,0,0)" stroke="none">600</tspan></tspan></tspan></text>
 <path fill="rgb(0,69,134)" stroke="none" d="M 13032,2613 L 12926,2613 12926,2402 13137,2402 13137,2613 13032,2613 Z"/>
 <path fill="rgb(255,66,14)" stroke="none" d="M 13032,3111 L 12926,3111 12926,2900 13137,2900 13137,3111 13032,3111 Z"/>
 <path fill="rgb(255,211,32)" stroke="none" d="M 13032,3609 L 12926,3609 12926,3398 13137,3398 13137,3609 13032,3609 Z"/>
 <path fill="rgb(87,157,28)" stroke="none" d="M 13032,4107 L 12926,4107 12926,3896 13137,3896 13137,4107 13032,4107 Z"/>
 <path fill="rgb(126,0,33)" stroke="none" d="M 13032,4604 L 12926,4604 12926,4394 13137,4394 13137,4604 13032,4604 Z"/>
 <path fill="rgb(131,202,255)" stroke="none" d="M 13032,5102 L 12926,5102 12926,4891 13137,4891 13137,5102 13032,5102 Z"/>
 <path fill="rgb(49,64,4)" stroke="none" d="M 13032,5600 L 12926,5600 12926,5389 13137,5389 13137,5600 13032,5600 Z"/>
 <path fill="rgb(174,207,0)" stroke="none" d="M 13032,6098 L 12926,6098 12926,5887 13137,5887 13137,6098 13032,6098 Z"/>
 <path fill="rgb(75,31,111)" stroke="none" d="M 13032,6596 L 12926,6596 12926,6385 13137,6385 13137,6596 13032,6596 Z"/>
 <text class="TextShape"><tspan class="TextParagraph" font-family="Liberation Sans, sans-serif" font-size="353px" font-weight="400"><tspan class="TextPosition" x="13237" y="2627"/><tspan class="TextPosition" x="13237" y="2627"><tspan fill="rgb(0,0,0)" stroke="none">react</tspan></tspan></tspan></text>
 <text class="TextShape"><tspan class="TextParagraph" font-family="Liberation Sans, sans-serif" font-size="353px" font-weight="400"><tspan class="TextPosition" x="13237" y="3125"/><tspan class="TextPosition" x="13237" y="3125"><tspan fill="rgb(0,0,0)" stroke="none">ember</tspan></tspan></tspan></text>
 <text class="TextShape"><tspan class="TextParagraph" font-family="Liberation Sans, sans-serif" font-size="353px" font-weight="400"><tspan class="TextPosition" x="13237" y="3623"/><tspan class="TextPosition" x="13237" y="3623"><tspan fill="rgb(0,0,0)" stroke="none">ember2</tspan></tspan></tspan></text>
 <text class="TextShape"><tspan class="TextParagraph" font-family="Liberation Sans, sans-serif" font-size="353px" font-weight="400"><tspan class="TextPosition" x="13237" y="4121"/><tspan class="TextPosition" x="13237" y="4121"><tspan fill="rgb(0,0,0)" stroke="none">incrementaldom</tspan></tspan></tspan></text>
 <text class="TextShape"><tspan class="TextParagraph" font-family="Liberation Sans, sans-serif" font-size="353px" font-weight="400"><tspan class="TextPosition" x="13237" y="4618"/><tspan class="TextPosition" x="13237" y="4618"><tspan fill="rgb(0,0,0)" stroke="none">angular1</tspan></tspan></tspan></text>
 <text class="TextShape"><tspan class="TextParagraph" font-family="Liberation Sans, sans-serif" font-size="353px" font-weight="400"><tspan class="TextPosition" x="13237" y="5116"/><tspan class="TextPosition" x="13237" y="5116"><tspan fill="rgb(0,0,0)" stroke="none">angular2</tspan></tspan></tspan></text>
 <text class="TextShape"><tspan class="TextParagraph" font-family="Liberation Sans, sans-serif" font-size="353px" font-weight="400"><tspan class="TextPosition" x="13237" y="5614"/><tspan class="TextPosition" x="13237" y="5614"><tspan fill="rgb(0,0,0)" stroke="none">mithril</tspan></tspan></tspan></text>
 <text class="TextShape"><tspan class="TextParagraph" font-family="Liberation Sans, sans-serif" font-size="353px" font-weight="400"><tspan class="TextPosition" x="13237" y="6112"/><tspan class="TextPosition" x="13237" y="6112"><tspan fill="rgb(0,0,0)" stroke="none">virtualdom</tspan></tspan></tspan></text>
 <text class="TextShape"><tspan class="TextParagraph" font-family="Liberation Sans, sans-serif" font-size="353px" font-weight="400"><tspan class="TextPosition" x="13237" y="6610"/><tspan class="TextPosition" x="13237" y="6610"><tspan fill="rgb(0,0,0)" stroke="none">citojs</tspan></tspan></tspan></text>
 <text class="TextShape" transform="translate(837,6047) rotate(-90) translate(-837,-6047)"><tspan class="TextParagraph" font-family="Liberation Sans, sans-serif" font-size="318px" font-weight="400"><tspan class="TextPosition" x="837" y="6047"/><tspan class="TextPosition" x="837" y="6047"><tspan fill="rgb(0,0,0)" stroke="none">count (lower is better)</tspan></tspan></tspan></text>
</svg>