<?xml version="1.0" encoding="UTF-8"?>
<!DOCTYPE svg PUBLIC "-//W3C//DTD SVG 1.1//EN" "http://www.w3.org/Graphics/SVG/1.1/DTD/svg11.dtd">
<svg width="160mm" height="90mm" viewBox="0 0 16000 9000" version="1.1" baseProfile="tiny" xmlns="http://www.w3.org/2000/svg" stroke-width="28.222" stroke-linejoin="round" xml:space="preserve">
 <path fill="rgb(255,255,255)" stroke="none" d="M 7997,9004 L 0,9004 0,0 15993,0 15993,9004 7997,9004 Z"/>
 <path fill="none" stroke="rgb(179,179,179)" stroke-linejoin="round" d="M 6848,8177 L 2137,8177 2137,379 11559,379 11559,8177 6848,8177 Z"/>
 <path fill="none" stroke="rgb(179,179,179)" stroke-linejoin="round" d="M 11559,8176 L 2137,8176"/>
 <path fill="none" stroke="rgb(179,179,179)" stroke-linejoin="round" d="M 11559,7061 L 2137,7061"/>
 <path fill="none" stroke="rgb(179,179,179)" stroke-linejoin="round" d="M 11559,5947 L 2137,5947"/>
 <path fill="none" stroke="rgb(179,179,179)" stroke-linejoin="round" d="M 11559,4833 L 2137,4833"/>
 <path fill="none" stroke="rgb(179,179,179)" stroke-linejoin="round" d="M 11559,3720 L 2137,3720"/>
 <path fill="none" stroke="rgb(179,179,179)" stroke-linejoin="round" d="M 11559,2606 L 2137,2606"/>
 <path fill="none" stroke="rgb(179,179,179)" stroke-linejoin="round" d="M 11559,1492 L 2137,1492"/>
 <path fill="none" stroke="rgb(179,179,179)" stroke-linejoin="round" d="M 11559,377 L 2137,377"/>
 <path fill="none" stroke="rgb(179,179,179)" stroke-linejoin="round" d="M 2137,8326 L 2137,8176"/>
 <path fill="none" stroke="rgb(179,179,179)" stroke-linejoin="round" d="M 2137,8326 L 2137,8176"/>
 <path fill="none" stroke="rgb(179,179,179)" stroke-linejoin="round" d="M 11559,8326 L 11559,8176"/>
 <path fill="none" stroke="rgb(179,179,179)" stroke-linejoin="round" d="M 11559,8326 L 11559,8176"/>
 <path fill="none" stroke="rgb(179,179,179)" stroke-linejoin="round" d="M 2137,8176 L 11559,8176"/>
 <path fill="none" stroke="rgb(179,179,179)" stroke-linejoin="round" d="M 1987,8176 L 2137,8176"/>
 <path fill="none" stroke="rgb(179,179,179)" stroke-linejoin="round" d="M 1987,8176 L 2137,8176"/>
 <path fill="none" stroke="rgb(179,179,179)" stroke-linejoin="round" d="M 1987,7061 L 2137,7061"/>
 <path fill="none" stroke="rgb(179,179,179)" stroke-linejoin="round" d="M 1987,7061 L 2137,7061"/>
 <path fill="none" stroke="rgb(179,179,179)" stroke-linejoin="round" d="M 1987,5947 L 2137,5947"/>
 <path fill="none" stroke="rgb(179,179,179)" stroke-linejoin="round" d="M 1987,5947 L 2137,5947"/>
 <path fill="none" stroke="rgb(179,179,179)" stroke-linejoin="round" d="M 1987,4833 L 2137,4833"/>
 <path fill="none" stroke="rgb(179,179,179)" stroke-linejoin="round" d="M 1987,4833 L 2137,4833"/>
 <path fill="none" stroke="rgb(179,179,179)" stroke-linejoin="round" d="M 1987,3720 L 2137,3720"/>
 <path fill="none" stroke="rgb(179,179,179)" stroke-linejoin="round" d="M 1987,3720 L 2137,3720"/>
 <path fill="none" stroke="rgb(179,179,179)" stroke-linejoin="round" d="M 1987,2606 L 2137,2606"/>
 <path fill="none" stroke="rgb(179,179,179)" stroke-linejoin="round" d="M 1987,2606 L 2137,2606"/>
 <path fill="none" stroke="rgb(179,179,179)" stroke-linejoin="round" d="M 1987,1492 L 2137,1492"/>
 <path fill="none" stroke="rgb(179,179,179)" stroke-linejoin="round" d="M 1987,1492 L 2137,1492"/>
 <path fill="none" stroke="rgb(179,179,179)" stroke-linejoin="round" d="M 1987,377 L 2137,377"/>
 <path fill="none" stroke="rgb(179,179,179)" stroke-linejoin="round" d="M 1987,377 L 2137,377"/>
 <path fill="none" stroke="rgb(179,179,179)" stroke-linejoin="round" d="M 2137,8176 L 2137,377"/>
 <path fill="rgb(0,69,134)" stroke="none" d="M 2398,8176 L 2922,8176 2922,6177 2398,6177 2398,8176 Z"/>
 <path fill="rgb(255,66,14)" stroke="none" d="M 2922,8176 L 3445,8176 3445,6154 2922,6154 2922,8176 Z"/>
 <path fill="rgb(255,211,32)" stroke="none" d="M 3445,8176 L 3969,8176 3969,819 3445,819 3445,8176 Z"/>
 <path fill="rgb(87,157,28)" stroke="none" d="M 3969,8176 L 4492,8176 4492,2303 3969,2303 3969,8176 Z"/>
 <path fill="rgb(126,0,33)" stroke="none" d="M 4492,8176 L 5016,8176 5016,1059 4492,1059 4492,8176 Z"/>
 <path fill="rgb(131,202,255)" stroke="none" d="M 5016,8176 L 5539,8176 5539,2113 5016,2113 5016,8176 Z"/>
 <path fill="rgb(49,64,4)" stroke="none" d="M 5539,8176 L 6063,8176 6063,6201 5539,6201 5539,8176 Z"/>
 <path fill="rgb(174,207,0)" stroke="none" d="M 6063,8176 L 6586,8176 6586,6473 6063,6473 6063,8176 Z"/>
 <path fill="rgb(75,31,111)" stroke="none" d="M 6586,8176 L 7110,8176 7110,3363 6586,3363 6586,8176 Z"/>
 <path fill="rgb(255,149,14)" stroke="none" d="M 7110,8176 L 7633,8176 7633,6342 7110,6342 7110,8176 Z"/>
 <path fill="rgb(197,0,11)" stroke="none" d="M 7633,8176 L 8156,8176 8156,6246 7633,6246 7633,8176 Z"/>
 <path fill="rgb(0,132,209)" stroke="none" d="M 8156,8176 L 8679,8176 8679,5811 8156,5811 8156,8176 Z"/>
 <path fill="rgb(0,69,134)" stroke="none" d="M 8679,8176 L 9203,8176 9203,5620 8679,5620 8679,8176 Z"/>
 <path fill="rgb(255,66,14)" stroke="none" d="M 9203,8176 L 9726,8176 9726,6114 9203,6114 9203,8176 Z"/>
 <path fill="rgb(255,211,32)" stroke="none" d="M 9726,8176 L 10250,8176 10250,6085 9726,6085 9726,8176 Z"/>
 <path fill="rgb(87,157,28)" stroke="none" d="M 10250,8176 L 10773,8176 10773,4246 10250,4246 10250,8176 Z"/>
 <path fill="rgb(126,0,33)" stroke="none" d="M 10773,8176 L 11297,8176 11297,5223 10773,5223 10773,8176 Z"/>
 <text class="TextShape"><tspan class="TextParagraph" font-family="Liberation Sans" font-size="353px" font-weight="400"><tspan class="TextPosition" x="5300" y="8744"/><tspan class="TextPosition" x="5300" y="8744"><tspan fill="rgb(0,0,0)" stroke="none">droppedFrameCount</tspan></tspan></tspan></text>
 <text class="TextShape"><tspan class="TextParagraph" font-family="Liberation Sans" font-size="353px" font-weight="400"><tspan class="TextPosition" x="1702" y="8297"/><tspan class="TextPosition" x="1702" y="8297"><tspan fill="rgb(0,0,0)" stroke="none">0</tspan></tspan></tspan></text>
 <text class="TextShape"><tspan class="TextParagraph" font-family="Liberation Sans" font-size="353px" font-weight="400"><tspan class="TextPosition" x="1331" y="7182"/><tspan class="TextPosition" x="1331" y="7182"><tspan fill="rgb(0,0,0)" stroke="none">100</tspan></tspan></tspan></text>
 <text class="TextShape"><tspan class="TextParagraph" font-family="Liberation Sans" font-size="353px" font-weight="400"><tspan class="TextPosition" x="1331" y="6068"/><tspan class="TextPosition" x="1331" y="6068"><tspan fill="rgb(0,0,0)" stroke="none">200</tspan></tspan></tspan></text>
 <text class="TextShape"><tspan class="TextParagraph" font-family="Liberation Sans" font-size="353px" font-weight="400"><tspan class="TextPosition" x="1331" y="4954"/><tspan class="TextPosition" x="1331" y="4954"><tspan fill="rgb(0,0,0)" stroke="none">300</tspan></tspan></tspan></text>
 <text class="TextShape"><tspan class="TextParagraph" font-family="Liberation Sans" font-size="353px" font-weight="400"><tspan class="TextPosition" x="1331" y="3840"/><tspan class="TextPosition" x="1331" y="3840"><tspan fill="rgb(0,0,0)" stroke="none">400</tspan></tspan></tspan></text>
 <text class="TextShape"><tspan class="TextParagraph" font-family="Liberation Sans" font-size="353px" font-weight="400"><tspan class="TextPosition" x="1331" y="2726"/><tspan class="TextPosition" x="1331" y="2726"><tspan fill="rgb(0,0,0)" stroke="none">500</tspan></tspan></tspan></text>
 <text class="TextShape"><tspan class="TextParagraph" font-family="Liberation Sans" font-size="353px" font-weight="400"><tspan class="TextPosition" x="1331" y="1612"/><tspan class="TextPosition" x="1331" y="1612"><tspan fill="rgb(0,0,0)" stroke="none">600</tspan></tspan></tspan></text>
 <text class="TextShape"><tspan class="TextParagraph" font-family="Liberation Sans" font-size="353px" font-weight="400"><tspan class="TextPosition" x="1331" y="497"/><tspan class="TextPosition" x="1331" y="497"><tspan fill="rgb(0,0,0)" stroke="none">700</tspan></tspan></tspan></text>
 <path fill="rgb(0,69,134)" stroke="none" d="M 12100,623 L 11994,623 11994,412 12205,412 12205,623 12100,623 Z"/>
 <path fill="rgb(255,66,14)" stroke="none" d="M 12100,1121 L 11994,1121 11994,910 12205,910 12205,1121 12100,1121 Z"/>
 <path fill="rgb(255,211,32)" stroke="none" d="M 12100,1619 L 11994,1619 11994,1408 12205,1408 12205,1619 12100,1619 Z"/>
 <path fill="rgb(87,157,28)" stroke="none" d="M 12100,2117 L 11994,2117 11994,1906 12205,1906 12205,2117 12100,2117 Z"/>
 <path fill="rgb(126,0,33)" stroke="none" d="M 12100,2615 L 11994,2615 11994,2404 12205,2404 12205,2615 12100,2615 Z"/>
 <path fill="rgb(131,202,255)" stroke="none" d="M 12100,3113 L 11994,3113 11994,2902 12205,2902 12205,3113 12100,3113 Z"/>
 <path fill="rgb(49,64,4)" stroke="none" d="M 12100,3611 L 11994,3611 11994,3400 12205,3400 12205,3611 12100,3611 Z"/>
 <path fill="rgb(174,207,0)" stroke="none" d="M 12100,4109 L 11994,4109 11994,3898 12205,3898 12205,4109 12100,4109 Z"/>
 <path fill="rgb(75,31,111)" stroke="none" d="M 12100,4606 L 11994,4606 11994,4396 12205,4396 12205,4606 12100,4606 Z"/>
 <path fill="rgb(255,149,14)" stroke="none" d="M 12100,5104 L 11994,5104 11994,4893 12205,4893 12205,5104 12100,5104 Z"/>
 <path fill="rgb(197,0,11)" stroke="none" d="M 12100,5602 L 11994,5602 11994,5391 12205,5391 12205,5602 12100,5602 Z"/>
 <path fill="rgb(0,132,209)" stroke="none" d="M 12100,6100 L 11994,6100 11994,5889 12205,5889 12205,6100 12100,6100 Z"/>
 <path fill="rgb(0,69,134)" stroke="none" d="M 12100,6598 L 11994,6598 11994,6387 12205,6387 12205,6598 12100,6598 Z"/>
 <path fill="rgb(255,66,14)" stroke="none" d="M 12100,7096 L 11994,7096 11994,6885 12205,6885 12205,7096 12100,7096 Z"/>
 <path fill="rgb(255,211,32)" stroke="none" d="M 12100,7594 L 11994,7594 11994,7383 12205,7383 12205,7594 12100,7594 Z"/>
 <path fill="rgb(87,157,28)" stroke="none" d="M 12100,8092 L 11994,8092 11994,7881 12205,7881 12205,8092 12100,8092 Z"/>
 <path fill="rgb(126,0,33)" stroke="none" d="M 12100,8590 L 11994,8590 11994,8379 12205,8379 12205,8590 12100,8590 Z"/>
 <text class="TextShape"><tspan class="TextParagraph" font-family="Liberation Sans" font-size="353px" font-weight="400"><tspan class="TextPosition" x="12305" y="637"/><tspan class="TextPosition" x="12305" y="637"><tspan fill="rgb(0,0,0)" stroke="none">react</tspan></tspan></tspan></text>
 <text class="TextShape"><tspan class="TextParagraph" font-family="Liberation Sans" font-size="353px" font-weight="400"><tspan class="TextPosition" x="12305" y="1135"/><tspan class="TextPosition" x="12305" y="1135"><tspan fill="rgb(0,0,0)" stroke="none">react_keys</tspan></tspan></tspan></text>
 <text class="TextShape"><tspan class="TextParagraph" font-family="Liberation Sans" font-size="353px" font-weight="400"><tspan class="TextPosition" x="12305" y="1633"/><tspan class="TextPosition" x="12305" y="1633"><tspan fill="rgb(0,0,0)" stroke="none">ember</tspan></tspan></tspan></text>
 <text class="TextShape"><tspan class="TextParagraph" font-family="Liberation Sans" font-size="353px" font-weight="400"><tspan class="TextPosition" x="12305" y="2131"/><tspan class="TextPosition" x="12305" y="2131"><tspan fill="rgb(0,0,0)" stroke="none">ember_keys</tspan></tspan></tspan></text>
 <text class="TextShape"><tspan class="TextParagraph" font-family="Liberation Sans" font-size="353px" font-weight="400"><tspan class="TextPosition" x="12305" y="2629"/><tspan class="TextPosition" x="12305" y="2629"><tspan fill="rgb(0,0,0)" stroke="none">ember2</tspan></tspan></tspan></text>
 <text class="TextShape"><tspan class="TextParagraph" font-family="Liberation Sans" font-size="353px" font-weight="400"><tspan class="TextPosition" x="12305" y="3127"/><tspan class="TextPosition" x="12305" y="3127"><tspan fill="rgb(0,0,0)" stroke="none">ember2_keys</tspan></tspan></tspan></text>
 <text class="TextShape"><tspan class="TextParagraph" font-family="Liberation Sans" font-size="353px" font-weight="400"><tspan class="TextPosition" x="12305" y="3625"/><tspan class="TextPosition" x="12305" y="3625"><tspan fill="rgb(0,0,0)" stroke="none">incrementaldom</tspan></tspan></tspan></text>
 <text class="TextShape"><tspan class="TextParagraph" font-family="Liberation Sans" font-size="353px" font-weight="400"><tspan class="TextPosition" x="12305" y="4123"/><tspan class="TextPosition" x="12305" y="4123"><tspan fill="rgb(0,0,0)" stroke="none">incrementaldom_keys</tspan></tspan></tspan></text>
 <text class="TextShape"><tspan class="TextParagraph" font-family="Liberation Sans" font-size="353px" font-weight="400"><tspan class="TextPosition" x="12305" y="4620"/><tspan class="TextPosition" x="12305" y="4620"><tspan fill="rgb(0,0,0)" stroke="none">angular1</tspan></tspan></tspan></text>
 <text class="TextShape"><tspan class="TextParagraph" font-family="Liberation Sans" font-size="353px" font-weight="400"><tspan class="TextPosition" x="12305" y="5118"/><tspan class="TextPosition" x="12305" y="5118"><tspan fill="rgb(0,0,0)" stroke="none">angular1_trackby</tspan></tspan></tspan></text>
 <text class="TextShape"><tspan class="TextParagraph" font-family="Liberation Sans" font-size="353px" font-weight="400"><tspan class="TextPosition" x="12305" y="5616"/><tspan class="TextPosition" x="12305" y="5616"><tspan fill="rgb(0,0,0)" stroke="none">angular2</tspan></tspan></tspan></text>
 <text class="TextShape"><tspan class="TextParagraph" font-family="Liberation Sans" font-size="353px" font-weight="400"><tspan class="TextPosition" x="12305" y="6114"/><tspan class="TextPosition" x="12305" y="6114"><tspan fill="rgb(0,0,0)" stroke="none">mithril</tspan></tspan></tspan></text>
 <text class="TextShape"><tspan class="TextParagraph" font-family="Liberation Sans" font-size="353px" font-weight="400"><tspan class="TextPosition" x="12305" y="6612"/><tspan class="TextPosition" x="12305" y="6612"><tspan fill="rgb(0,0,0)" stroke="none">mithril_keys</tspan></tspan></tspan></text>
 <text class="TextShape"><tspan class="TextParagraph" font-family="Liberation Sans" font-size="353px" font-weight="400"><tspan class="TextPosition" x="12305" y="7110"/><tspan class="TextPosition" x="12305" y="7110"><tspan fill="rgb(0,0,0)" stroke="none">virtualdom</tspan></tspan></tspan></text>
 <text class="TextShape"><tspan class="TextParagraph" font-family="Liberation Sans" font-size="353px" font-weight="400"><tspan class="TextPosition" x="12305" y="7608"/><tspan class="TextPosition" x="12305" y="7608"><tspan fill="rgb(0,0,0)" stroke="none">virtualdom_keys</tspan></tspan></tspan></text>
 <text class="TextShape"><tspan class="TextParagraph" font-family="Liberation Sans" font-size="353px" font-weight="400"><tspan class="TextPosition" x="12305" y="8106"/><tspan class="TextPosition" x="12305" y="8106"><tspan fill="rgb(0,0,0)" stroke="none">citojs</tspan></tspan></tspan></text>
 <text class="TextShape"><tspan class="TextParagraph" font-family="Liberation Sans" font-size="353px" font-weight="400"><tspan class="TextPosition" x="12305" y="8604"/><tspan class="TextPosition" x="12305" y="8604"><tspan fill="rgb(0,0,0)" stroke="none">citojs_keys</tspan></tspan></tspan></text>
 <text class="TextShape" transform="translate(837,6049) rotate(-90) translate(-837,-6049)"><tspan class="TextParagraph" font-family="Liberation Sans" font-size="318px" font-weight="400"><tspan class="TextPosition" x="837" y="6049"/><tspan class="TextPosition" x="837" y="6049"><tspan fill="rgb(0,0,0)" stroke="none">count (lower is better)</tspan></tspan></tspan></text>
</svg>