<?xml version="1.0" encoding="UTF-8"?>
<!DOCTYPE svg PUBLIC "-//W3C//DTD SVG 1.1//EN" "http://www.w3.org/Graphics/SVG/1.1/DTD/svg11.dtd">
<svg width="160mm" height="90mm" viewBox="0 0 16000 9000" version="1.1" baseProfile="tiny" xmlns="http://www.w3.org/2000/svg" stroke-width="28.222" stroke-linejoin="round" xml:space="preserve">
 <path fill="rgb(255,255,255)" stroke="none" d="M 7992,9005 L 0,9005 0,0 15983,0 15983,9005 7992,9005 Z"/>
 <path fill="none" stroke="rgb(179,179,179)" stroke-linejoin="round" d="M 7213,8178 L 1951,8178 1951,379 12475,379 12475,8178 7213,8178 Z"/>
 <path fill="none" stroke="rgb(179,179,179)" stroke-linejoin="round" d="M 12475,8177 L 1951,8177"/>
 <path fill="none" stroke="rgb(179,179,179)" stroke-linejoin="round" d="M 12475,6877 L 1951,6877"/>
 <path fill="none" stroke="rgb(179,179,179)" stroke-linejoin="round" d="M 12475,5577 L 1951,5577"/>
 <path fill="none" stroke="rgb(179,179,179)" stroke-linejoin="round" d="M 12475,4278 L 1951,4278"/>
 <path fill="none" stroke="rgb(179,179,179)" stroke-linejoin="round" d="M 12475,2978 L 1951,2978"/>
 <path fill="none" stroke="rgb(179,179,179)" stroke-linejoin="round" d="M 12475,1678 L 1951,1678"/>
 <path fill="none" stroke="rgb(179,179,179)" stroke-linejoin="round" d="M 12475,378 L 1951,378"/>
 <path fill="none" stroke="rgb(179,179,179)" stroke-linejoin="round" d="M 1951,8327 L 1951,8177"/>
 <path fill="none" stroke="rgb(179,179,179)" stroke-linejoin="round" d="M 1951,8327 L 1951,8177"/>
 <path fill="none" stroke="rgb(179,179,179)" stroke-linejoin="round" d="M 12475,8327 L 12475,8177"/>
 <path fill="none" stroke="rgb(179,179,179)" stroke-linejoin="round" d="M 12475,8327 L 12475,8177"/>
 <path fill="none" stroke="rgb(179,179,179)" stroke-linejoin="round" d="M 1951,8177 L 12475,8177"/>
 <path fill="none" stroke="rgb(179,179,179)" stroke-linejoin="round" d="M 1801,8177 L 1951,8177"/>
 <path fill="none" stroke="rgb(179,179,179)" stroke-linejoin="round" d="M 1801,8177 L 1951,8177"/>
 <path fill="none" stroke="rgb(179,179,179)" stroke-linejoin="round" d="M 1801,6877 L 1951,6877"/>
 <path fill="none" stroke="rgb(179,179,179)" stroke-linejoin="round" d="M 1801,6877 L 1951,6877"/>
 <path fill="none" stroke="rgb(179,179,179)" stroke-linejoin="round" d="M 1801,5577 L 1951,5577"/>
 <path fill="none" stroke="rgb(179,179,179)" stroke-linejoin="round" d="M 1801,5577 L 1951,5577"/>
 <path fill="none" stroke="rgb(179,179,179)" stroke-linejoin="round" d="M 1801,4278 L 1951,4278"/>
 <path fill="none" stroke="rgb(179,179,179)" stroke-linejoin="round" d="M 1801,4278 L 1951,4278"/>
 <path fill="none" stroke="rgb(179,179,179)" stroke-linejoin="round" d="M 1801,2978 L 1951,2978"/>
 <path fill="none" stroke="rgb(179,179,179)" stroke-linejoin="round" d="M 1801,2978 L 1951,2978"/>
 <path fill="none" stroke="rgb(179,179,179)" stroke-linejoin="round" d="M 1801,1678 L 1951,1678"/>
 <path fill="none" stroke="rgb(179,179,179)" stroke-linejoin="round" d="M 1801,1678 L 1951,1678"/>
 <path fill="none" stroke="rgb(179,179,179)" stroke-linejoin="round" d="M 1801,378 L 1951,378"/>
 <path fill="none" stroke="rgb(179,179,179)" stroke-linejoin="round" d="M 1801,378 L 1951,378"/>
 <path fill="none" stroke="rgb(179,179,179)" stroke-linejoin="round" d="M 1951,8177 L 1951,378"/>
 <path fill="rgb(0,69,134)" stroke="none" d="M 2477,8177 L 3529,8177 3529,1980 2477,1980 2477,8177 Z"/>
 <path fill="rgb(255,66,14)" stroke="none" d="M 3529,8177 L 4582,8177 4582,3649 3529,3649 3529,8177 Z"/>
 <path fill="rgb(255,211,32)" stroke="none" d="M 4582,8177 L 5634,8177 5634,3790 4582,3790 4582,8177 Z"/>
 <path fill="rgb(87,157,28)" stroke="none" d="M 5634,8177 L 6687,8177 6687,1475 5634,1475 5634,8177 Z"/>
 <path fill="rgb(126,0,33)" stroke="none" d="M 6687,8177 L 7739,8177 7739,5857 6687,5857 6687,8177 Z"/>
 <path fill="rgb(131,202,255)" stroke="none" d="M 7739,8177 L 8791,8177 8791,2918 7739,2918 7739,8177 Z"/>
 <path fill="rgb(49,64,4)" stroke="none" d="M 8791,8177 L 9843,8177 9843,2028 8791,2028 8791,8177 Z"/>
 <path fill="rgb(174,207,0)" stroke="none" d="M 9843,8177 L 10896,8177 10896,1739 9843,1739 9843,8177 Z"/>
 <path fill="rgb(75,31,111)" stroke="none" d="M 10896,8177 L 11948,8177 11948,2865 10896,2865 10896,8177 Z"/>
 <text class="TextShape"><tspan class="TextParagraph" font-family="Liberation Sans" font-size="353px" font-weight="400"><tspan class="TextPosition" x="5982" y="8745"/><tspan class="TextPosition" x="5982" y="8745"><tspan fill="rgb(0,0,0)" stroke="none">frames_per_sec</tspan></tspan></tspan></text>
 <text class="TextShape"><tspan class="TextParagraph" font-family="Liberation Sans" font-size="353px" font-weight="400"><tspan class="TextPosition" x="1331" y="8298"/><tspan class="TextPosition" x="1331" y="8298"><tspan fill="rgb(0,0,0)" stroke="none">30</tspan></tspan></tspan></text>
 <text class="TextShape"><tspan class="TextParagraph" font-family="Liberation Sans" font-size="353px" font-weight="400"><tspan class="TextPosition" x="1331" y="6998"/><tspan class="TextPosition" x="1331" y="6998"><tspan fill="rgb(0,0,0)" stroke="none">35</tspan></tspan></tspan></text>
 <text class="TextShape"><tspan class="TextParagraph" font-family="Liberation Sans" font-size="353px" font-weight="400"><tspan class="TextPosition" x="1331" y="5698"/><tspan class="TextPosition" x="1331" y="5698"><tspan fill="rgb(0,0,0)" stroke="none">40</tspan></tspan></tspan></text>
 <text class="TextShape"><tspan class="TextParagraph" font-family="Liberation Sans" font-size="353px" font-weight="400"><tspan class="TextPosition" x="1331" y="4398"/><tspan class="TextPosition" x="1331" y="4398"><tspan fill="rgb(0,0,0)" stroke="none">45</tspan></tspan></tspan></text>
 <text class="TextShape"><tspan class="TextParagraph" font-family="Liberation Sans" font-size="353px" font-weight="400"><tspan class="TextPosition" x="1331" y="3098"/><tspan class="TextPosition" x="1331" y="3098"><tspan fill="rgb(0,0,0)" stroke="none">50</tspan></tspan></tspan></text>
 <text class="TextShape"><tspan class="TextParagraph" font-family="Liberation Sans" font-size="353px" font-weight="400"><tspan class="TextPosition" x="1331" y="1798"/><tspan class="TextPosition" x="1331" y="1798"><tspan fill="rgb(0,0,0)" stroke="none">55</tspan></tspan></tspan></text>
 <text class="TextShape"><tspan class="TextParagraph" font-family="Liberation Sans" font-size="353px" font-weight="400"><tspan class="TextPosition" x="1331" y="498"/><tspan class="TextPosition" x="1331" y="498"><tspan fill="rgb(0,0,0)" stroke="none">60</tspan></tspan></tspan></text>
 <path fill="rgb(0,69,134)" stroke="none" d="M 13016,2616 L 12910,2616 12910,2405 13121,2405 13121,2616 13016,2616 Z"/>
 <path fill="rgb(255,66,14)" stroke="none" d="M 13016,3114 L 12910,3114 12910,2903 13121,2903 13121,3114 13016,3114 Z"/>
 <path fill="rgb(255,211,32)" stroke="none" d="M 13016,3612 L 12910,3612 12910,3401 13121,3401 13121,3612 13016,3612 Z"/>
 <path fill="rgb(87,157,28)" stroke="none" d="M 13016,4110 L 12910,4110 12910,3899 13121,3899 13121,4110 13016,4110 Z"/>
 <path fill="rgb(126,0,33)" stroke="none" d="M 13016,4607 L 12910,4607 12910,4397 13121,4397 13121,4607 13016,4607 Z"/>
 <path fill="rgb(131,202,255)" stroke="none" d="M 13016,5105 L 12910,5105 12910,4894 13121,4894 13121,5105 13016,5105 Z"/>
 <path fill="rgb(49,64,4)" stroke="none" d="M 13016,5603 L 12910,5603 12910,5392 13121,5392 13121,5603 13016,5603 Z"/>
 <path fill="rgb(174,207,0)" stroke="none" d="M 13016,6101 L 12910,6101 12910,5890 13121,5890 13121,6101 13016,6101 Z"/>
 <path fill="rgb(75,31,111)" stroke="none" d="M 13016,6599 L 12910,6599 12910,6388 13121,6388 13121,6599 13016,6599 Z"/>
 <text class="TextShape"><tspan class="TextParagraph" font-family="Liberation Sans" font-size="353px" font-weight="400"><tspan class="TextPosition" x="13221" y="2630"/><tspan class="TextPosition" x="13221" y="2630"><tspan fill="rgb(0,0,0)" stroke="none">react</tspan></tspan></tspan></text>
 <text class="TextShape"><tspan class="TextParagraph" font-family="Liberation Sans" font-size="353px" font-weight="400"><tspan class="TextPosition" x="13221" y="3128"/><tspan class="TextPosition" x="13221" y="3128"><tspan fill="rgb(0,0,0)" stroke="none">ember</tspan></tspan></tspan></text>
 <text class="TextShape"><tspan class="TextParagraph" font-family="Liberation Sans" font-size="353px" font-weight="400"><tspan class="TextPosition" x="13221" y="3626"/><tspan class="TextPosition" x="13221" y="3626"><tspan fill="rgb(0,0,0)" stroke="none">ember2</tspan></tspan></tspan></text>
 <text class="TextShape"><tspan class="TextParagraph" font-family="Liberation Sans" font-size="353px" font-weight="400"><tspan class="TextPosition" x="13221" y="4124"/><tspan class="TextPosition" x="13221" y="4124"><tspan fill="rgb(0,0,0)" stroke="none">incrementaldom</tspan></tspan></tspan></text>
 <text class="TextShape"><tspan class="TextParagraph" font-family="Liberation Sans" font-size="353px" font-weight="400"><tspan class="TextPosition" x="13221" y="4621"/><tspan class="TextPosition" x="13221" y="4621"><tspan fill="rgb(0,0,0)" stroke="none">angular1</tspan></tspan></tspan></text>
 <text class="TextShape"><tspan class="TextParagraph" font-family="Liberation Sans" font-size="353px" font-weight="400"><tspan class="TextPosition" x="13221" y="5119"/><tspan class="TextPosition" x="13221" y="5119"><tspan fill="rgb(0,0,0)" stroke="none">angular2</tspan></tspan></tspan></text>
 <text class="TextShape"><tspan class="TextParagraph" font-family="Liberation Sans" font-size="353px" font-weight="400"><tspan class="TextPosition" x="13221" y="5617"/><tspan class="TextPosition" x="13221" y="5617"><tspan fill="rgb(0,0,0)" stroke="none">mithril</tspan></tspan></tspan></text>
 <text class="TextShape"><tspan class="TextParagraph" font-family="Liberation Sans" font-size="353px" font-weight="400"><tspan class="TextPosition" x="13221" y="6115"/><tspan class="TextPosition" x="13221" y="6115"><tspan fill="rgb(0,0,0)" stroke="none">virtualdom</tspan></tspan></tspan></text>
 <text class="TextShape"><tspan class="TextParagraph" font-family="Liberation Sans" font-size="353px" font-weight="400"><tspan class="TextPosition" x="13221" y="6613"/><tspan class="TextPosition" x="13221" y="6613"><tspan fill="rgb(0,0,0)" stroke="none">citojs</tspan></tspan></tspan></text>
 <text class="TextShape" transform="translate(837,6024) rotate(-90) translate(-837,-6024)"><tspan class="TextParagraph" font-family="Liberation Sans" font-size="318px" font-weight="400"><tspan class="TextPosition" x="837" y="6024"/><tspan class="TextPosition" x="837" y="6024"><tspan fill="rgb(0,0,0)" stroke="none">FPS (higher is better)</tspan></tspan></tspan></text>
</svg>