<?xml version="1.0" encoding="UTF-8"?>
<!DOCTYPE svg PUBLIC "-//W3C//DTD SVG 1.1//EN" "http://www.w3.org/Graphics/SVG/1.1/DTD/svg11.dtd">
<svg width="160mm" height="90mm" viewBox="0 0 16000 9000" version="1.1" baseProfile="tiny" xmlns="http://www.w3.org/2000/svg" stroke-width="28.222" stroke-linejoin="round" xml:space="preserve">
 <path fill="rgb(255,255,255)" stroke="none" d="M 7997,9004 L 0,9004 0,0 15994,0 15994,9004 7997,9004 Z"/>
 <path fill="none" stroke="rgb(179,179,179)" stroke-linejoin="round" d="M 7034,8177 L 2507,8177 2507,379 11560,379 11560,8177 7034,8177 Z"/>
 <path fill="none" stroke="rgb(179,179,179)" stroke-linejoin="round" d="M 11560,8176 L 2507,8176"/>
 <path fill="none" stroke="rgb(179,179,179)" stroke-linejoin="round" d="M 11560,6876 L 2507,6876"/>
 <path fill="none" stroke="rgb(179,179,179)" stroke-linejoin="round" d="M 11560,5576 L 2507,5576"/>
 <path fill="none" stroke="rgb(179,179,179)" stroke-linejoin="round" d="M 11560,4277 L 2507,4277"/>
 <path fill="none" stroke="rgb(179,179,179)" stroke-linejoin="round" d="M 11560,2977 L 2507,2977"/>
 <path fill="none" stroke="rgb(179,179,179)" stroke-linejoin="round" d="M 11560,1677 L 2507,1677"/>
 <path fill="none" stroke="rgb(179,179,179)" stroke-linejoin="round" d="M 11560,378 L 2507,378"/>
 <path fill="none" stroke="rgb(179,179,179)" stroke-linejoin="round" d="M 2507,8326 L 2507,8176"/>
 <path fill="none" stroke="rgb(179,179,179)" stroke-linejoin="round" d="M 2507,8326 L 2507,8176"/>
 <path fill="none" stroke="rgb(179,179,179)" stroke-linejoin="round" d="M 11560,8326 L 11560,8176"/>
 <path fill="none" stroke="rgb(179,179,179)" stroke-linejoin="round" d="M 11560,8326 L 11560,8176"/>
 <path fill="none" stroke="rgb(179,179,179)" stroke-linejoin="round" d="M 2507,8176 L 11560,8176"/>
 <path fill="none" stroke="rgb(179,179,179)" stroke-linejoin="round" d="M 2357,8176 L 2507,8176"/>
 <path fill="none" stroke="rgb(179,179,179)" stroke-linejoin="round" d="M 2357,8176 L 2507,8176"/>
 <path fill="none" stroke="rgb(179,179,179)" stroke-linejoin="round" d="M 2357,6876 L 2507,6876"/>
 <path fill="none" stroke="rgb(179,179,179)" stroke-linejoin="round" d="M 2357,6876 L 2507,6876"/>
 <path fill="none" stroke="rgb(179,179,179)" stroke-linejoin="round" d="M 2357,5576 L 2507,5576"/>
 <path fill="none" stroke="rgb(179,179,179)" stroke-linejoin="round" d="M 2357,5576 L 2507,5576"/>
 <path fill="none" stroke="rgb(179,179,179)" stroke-linejoin="round" d="M 2357,4277 L 2507,4277"/>
 <path fill="none" stroke="rgb(179,179,179)" stroke-linejoin="round" d="M 2357,4277 L 2507,4277"/>
 <path fill="none" stroke="rgb(179,179,179)" stroke-linejoin="round" d="M 2357,2977 L 2507,2977"/>
 <path fill="none" stroke="rgb(179,179,179)" stroke-linejoin="round" d="M 2357,2977 L 2507,2977"/>
 <path fill="none" stroke="rgb(179,179,179)" stroke-linejoin="round" d="M 2357,1677 L 2507,1677"/>
 <path fill="none" stroke="rgb(179,179,179)" stroke-linejoin="round" d="M 2357,1677 L 2507,1677"/>
 <path fill="none" stroke="rgb(179,179,179)" stroke-linejoin="round" d="M 2357,378 L 2507,378"/>
 <path fill="none" stroke="rgb(179,179,179)" stroke-linejoin="round" d="M 2357,378 L 2507,378"/>
 <path fill="none" stroke="rgb(179,179,179)" stroke-linejoin="round" d="M 2507,8176 L 2507,378"/>
 <path fill="rgb(0,69,134)" stroke="none" d="M 2758,8176 L 3261,8176 3261,7697 2758,7697 2758,8176 Z"/>
 <path fill="rgb(255,66,14)" stroke="none" d="M 3261,8176 L 3764,8176 3764,7580 3261,7580 3261,8176 Z"/>
 <path fill="rgb(255,211,32)" stroke="none" d="M 3764,8176 L 4267,8176 4267,1832 3764,1832 3764,8176 Z"/>
 <path fill="rgb(87,157,28)" stroke="none" d="M 4267,8176 L 4770,8176 4770,4110 4267,4110 4267,8176 Z"/>
 <path fill="rgb(126,0,33)" stroke="none" d="M 4770,8176 L 5273,8176 5273,2068 4770,2068 4770,8176 Z"/>
 <path fill="rgb(131,202,255)" stroke="none" d="M 5273,8176 L 5776,8176 5776,4162 5273,4162 5273,8176 Z"/>
 <path fill="rgb(49,64,4)" stroke="none" d="M 5776,8176 L 6279,8176 6279,7701 5776,7701 5776,8176 Z"/>
 <path fill="rgb(174,207,0)" stroke="none" d="M 6279,8176 L 6782,8176 6782,7763 6279,7763 6279,8176 Z"/>
 <path fill="rgb(75,31,111)" stroke="none" d="M 6782,8176 L 7285,8176 7285,5076 6782,5076 6782,8176 Z"/>
 <path fill="rgb(255,149,14)" stroke="none" d="M 7285,8176 L 7788,8176 7788,7238 7285,7238 7285,8176 Z"/>
 <path fill="rgb(197,0,11)" stroke="none" d="M 7788,8176 L 8290,8176 8290,7202 7788,7202 7788,8176 Z"/>
 <path fill="rgb(0,132,209)" stroke="none" d="M 8290,8176 L 8793,8176 8793,7361 8290,7361 8290,8176 Z"/>
 <path fill="rgb(0,69,134)" stroke="none" d="M 8793,8176 L 9296,8176 9296,7315 8793,7315 8793,8176 Z"/>
 <path fill="rgb(255,66,14)" stroke="none" d="M 9296,8176 L 9799,8176 9799,7541 9296,7541 9296,8176 Z"/>
 <path fill="rgb(255,211,32)" stroke="none" d="M 9799,8176 L 10302,8176 10302,7502 9799,7502 9799,8176 Z"/>
 <path fill="rgb(87,157,28)" stroke="none" d="M 10302,8176 L 10805,8176 10805,7077 10302,7077 10302,8176 Z"/>
 <path fill="rgb(126,0,33)" stroke="none" d="M 10805,8176 L 11308,8176 11308,7329 10805,7329 10805,8176 Z"/>
 <text class="TextShape"><tspan class="TextParagraph" font-family="Liberation Sans" font-size="353px" font-weight="400"><tspan class="TextPosition" x="6240" y="8744"/><tspan class="TextPosition" x="6240" y="8744"><tspan fill="rgb(0,0,0)" stroke="none">Javascript</tspan></tspan></tspan></text>
 <text class="TextShape"><tspan class="TextParagraph" font-family="Liberation Sans" font-size="353px" font-weight="400"><tspan class="TextPosition" x="2072" y="8297"/><tspan class="TextPosition" x="2072" y="8297"><tspan fill="rgb(0,0,0)" stroke="none">0</tspan></tspan></tspan></text>
 <text class="TextShape"><tspan class="TextParagraph" font-family="Liberation Sans" font-size="353px" font-weight="400"><tspan class="TextPosition" x="1516" y="6997"/><tspan class="TextPosition" x="1516" y="6997"><tspan fill="rgb(0,0,0)" stroke="none">2000</tspan></tspan></tspan></text>
 <text class="TextShape"><tspan class="TextParagraph" font-family="Liberation Sans" font-size="353px" font-weight="400"><tspan class="TextPosition" x="1516" y="5697"/><tspan class="TextPosition" x="1516" y="5697"><tspan fill="rgb(0,0,0)" stroke="none">4000</tspan></tspan></tspan></text>
 <text class="TextShape"><tspan class="TextParagraph" font-family="Liberation Sans" font-size="353px" font-weight="400"><tspan class="TextPosition" x="1516" y="4397"/><tspan class="TextPosition" x="1516" y="4397"><tspan fill="rgb(0,0,0)" stroke="none">6000</tspan></tspan></tspan></text>
 <text class="TextShape"><tspan class="TextParagraph" font-family="Liberation Sans" font-size="353px" font-weight="400"><tspan class="TextPosition" x="1516" y="3097"/><tspan class="TextPosition" x="1516" y="3097"><tspan fill="rgb(0,0,0)" stroke="none">8000</tspan></tspan></tspan></text>
 <text class="TextShape"><tspan class="TextParagraph" font-family="Liberation Sans" font-size="353px" font-weight="400"><tspan class="TextPosition" x="1331" y="1797"/><tspan class="TextPosition" x="1331" y="1797"><tspan fill="rgb(0,0,0)" stroke="none">10000</tspan></tspan></tspan></text>
 <text class="TextShape"><tspan class="TextParagraph" font-family="Liberation Sans" font-size="353px" font-weight="400"><tspan class="TextPosition" x="1331" y="498"/><tspan class="TextPosition" x="1331" y="498"><tspan fill="rgb(0,0,0)" stroke="none">12000</tspan></tspan></tspan></text>
 <path fill="rgb(0,69,134)" stroke="none" d="M 12101,623 L 11995,623 11995,412 12206,412 12206,623 12101,623 Z"/>
 <path fill="rgb(255,66,14)" stroke="none" d="M 12101,1121 L 11995,1121 11995,910 12206,910 12206,1121 12101,1121 Z"/>
 <path fill="rgb(255,211,32)" stroke="none" d="M 12101,1619 L 11995,1619 11995,1408 12206,1408 12206,1619 12101,1619 Z"/>
 <path fill="rgb(87,157,28)" stroke="none" d="M 12101,2117 L 11995,2117 11995,1906 12206,1906 12206,2117 12101,2117 Z"/>
 <path fill="rgb(126,0,33)" stroke="none" d="M 12101,2615 L 11995,2615 11995,2404 12206,2404 12206,2615 12101,2615 Z"/>
 <path fill="rgb(131,202,255)" stroke="none" d="M 12101,3113 L 11995,3113 11995,2902 12206,2902 12206,3113 12101,3113 Z"/>
 <path fill="rgb(49,64,4)" stroke="none" d="M 12101,3611 L 11995,3611 11995,3400 12206,3400 12206,3611 12101,3611 Z"/>
 <path fill="rgb(174,207,0)" stroke="none" d="M 12101,4109 L 11995,4109 11995,3898 12206,3898 12206,4109 12101,4109 Z"/>
 <path fill="rgb(75,31,111)" stroke="none" d="M 12101,4606 L 11995,4606 11995,4396 12206,4396 12206,4606 12101,4606 Z"/>
 <path fill="rgb(255,149,14)" stroke="none" d="M 12101,5104 L 11995,5104 11995,4893 12206,4893 12206,5104 12101,5104 Z"/>
 <path fill="rgb(197,0,11)" stroke="none" d="M 12101,5602 L 11995,5602 11995,5391 12206,5391 12206,5602 12101,5602 Z"/>
 <path fill="rgb(0,132,209)" stroke="none" d="M 12101,6100 L 11995,6100 11995,5889 12206,5889 12206,6100 12101,6100 Z"/>
 <path fill="rgb(0,69,134)" stroke="none" d="M 12101,6598 L 11995,6598 11995,6387 12206,6387 12206,6598 12101,6598 Z"/>
 <path fill="rgb(255,66,14)" stroke="none" d="M 12101,7096 L 11995,7096 11995,6885 12206,6885 12206,7096 12101,7096 Z"/>
 <path fill="rgb(255,211,32)" stroke="none" d="M 12101,7594 L 11995,7594 11995,7383 12206,7383 12206,7594 12101,7594 Z"/>
 <path fill="rgb(87,157,28)" stroke="none" d="M 12101,8092 L 11995,8092 11995,7881 12206,7881 12206,8092 12101,8092 Z"/>
 <path fill="rgb(126,0,33)" stroke="none" d="M 12101,8590 L 11995,8590 11995,8379 12206,8379 12206,8590 12101,8590 Z"/>
 <text class="TextShape"><tspan class="TextParagraph" font-family="Liberation Sans" font-size="353px" font-weight="400"><tspan class="TextPosition" x="12306" y="637"/><tspan class="TextPosition" x="12306" y="637"><tspan fill="rgb(0,0,0)" stroke="none">react</tspan></tspan></tspan></text>
 <text class="TextShape"><tspan class="TextParagraph" font-family="Liberation Sans" font-size="353px" font-weight="400"><tspan class="TextPosition" x="12306" y="1135"/><tspan class="TextPosition" x="12306" y="1135"><tspan fill="rgb(0,0,0)" stroke="none">react_keys</tspan></tspan></tspan></text>
 <text class="TextShape"><tspan class="TextParagraph" font-family="Liberation Sans" font-size="353px" font-weight="400"><tspan class="TextPosition" x="12306" y="1633"/><tspan class="TextPosition" x="12306" y="1633"><tspan fill="rgb(0,0,0)" stroke="none">ember</tspan></tspan></tspan></text>
 <text class="TextShape"><tspan class="TextParagraph" font-family="Liberation Sans" font-size="353px" font-weight="400"><tspan class="TextPosition" x="12306" y="2131"/><tspan class="TextPosition" x="12306" y="2131"><tspan fill="rgb(0,0,0)" stroke="none">ember_keys</tspan></tspan></tspan></text>
 <text class="TextShape"><tspan class="TextParagraph" font-family="Liberation Sans" font-size="353px" font-weight="400"><tspan class="TextPosition" x="12306" y="2629"/><tspan class="TextPosition" x="12306" y="2629"><tspan fill="rgb(0,0,0)" stroke="none">ember2</tspan></tspan></tspan></text>
 <text class="TextShape"><tspan class="TextParagraph" font-family="Liberation Sans" font-size="353px" font-weight="400"><tspan class="TextPosition" x="12306" y="3127"/><tspan class="TextPosition" x="12306" y="3127"><tspan fill="rgb(0,0,0)" stroke="none">ember2_keys</tspan></tspan></tspan></text>
 <text class="TextShape"><tspan class="TextParagraph" font-family="Liberation Sans" font-size="353px" font-weight="400"><tspan class="TextPosition" x="12306" y="3625"/><tspan class="TextPosition" x="12306" y="3625"><tspan fill="rgb(0,0,0)" stroke="none">incrementaldom</tspan></tspan></tspan></text>
 <text class="TextShape"><tspan class="TextParagraph" font-family="Liberation Sans" font-size="353px" font-weight="400"><tspan class="TextPosition" x="12306" y="4123"/><tspan class="TextPosition" x="12306" y="4123"><tspan fill="rgb(0,0,0)" stroke="none">incrementaldom_keys</tspan></tspan></tspan></text>
 <text class="TextShape"><tspan class="TextParagraph" font-family="Liberation Sans" font-size="353px" font-weight="400"><tspan class="TextPosition" x="12306" y="4620"/><tspan class="TextPosition" x="12306" y="4620"><tspan fill="rgb(0,0,0)" stroke="none">angular1</tspan></tspan></tspan></text>
 <text class="TextShape"><tspan class="TextParagraph" font-family="Liberation Sans" font-size="353px" font-weight="400"><tspan class="TextPosition" x="12306" y="5118"/><tspan class="TextPosition" x="12306" y="5118"><tspan fill="rgb(0,0,0)" stroke="none">angular1_trackby</tspan></tspan></tspan></text>
 <text class="TextShape"><tspan class="TextParagraph" font-family="Liberation Sans" font-size="353px" font-weight="400"><tspan class="TextPosition" x="12306" y="5616"/><tspan class="TextPosition" x="12306" y="5616"><tspan fill="rgb(0,0,0)" stroke="none">angular2</tspan></tspan></tspan></text>
 <text class="TextShape"><tspan class="TextParagraph" font-family="Liberation Sans" font-size="353px" font-weight="400"><tspan class="TextPosition" x="12306" y="6114"/><tspan class="TextPosition" x="12306" y="6114"><tspan fill="rgb(0,0,0)" stroke="none">mithril</tspan></tspan></tspan></text>
 <text class="TextShape"><tspan class="TextParagraph" font-family="Liberation Sans" font-size="353px" font-weight="400"><tspan class="TextPosition" x="12306" y="6612"/><tspan class="TextPosition" x="12306" y="6612"><tspan fill="rgb(0,0,0)" stroke="none">mithril_keys</tspan></tspan></tspan></text>
 <text class="TextShape"><tspan class="TextParagraph" font-family="Liberation Sans" font-size="353px" font-weight="400"><tspan class="TextPosition" x="12306" y="7110"/><tspan class="TextPosition" x="12306" y="7110"><tspan fill="rgb(0,0,0)" stroke="none">virtualdom</tspan></tspan></tspan></text>
 <text class="TextShape"><tspan class="TextParagraph" font-family="Liberation Sans" font-size="353px" font-weight="400"><tspan class="TextPosition" x="12306" y="7608"/><tspan class="TextPosition" x="12306" y="7608"><tspan fill="rgb(0,0,0)" stroke="none">virtualdom_keys</tspan></tspan></tspan></text>
 <text class="TextShape"><tspan class="TextParagraph" font-family="Liberation Sans" font-size="353px" font-weight="400"><tspan class="TextPosition" x="12306" y="8106"/><tspan class="TextPosition" x="12306" y="8106"><tspan fill="rgb(0,0,0)" stroke="none">citojs</tspan></tspan></tspan></text>
 <text class="TextShape"><tspan class="TextParagraph" font-family="Liberation Sans" font-size="353px" font-weight="400"><tspan class="TextPosition" x="12306" y="8604"/><tspan class="TextPosition" x="12306" y="8604"><tspan fill="rgb(0,0,0)" stroke="none">citojs_keys</tspan></tspan></tspan></text>
 <text class="TextShape" transform="translate(837,5864) rotate(-90) translate(-837,-5864)"><tspan class="TextParagraph" font-family="Liberation Sans" font-size="318px" font-weight="400"><tspan class="TextPosition" x="837" y="5864"/><tspan class="TextPosition" x="837" y="5864"><tspan fill="rgb(0,0,0)" stroke="none">ms (lower is better)</tspan></tspan></tspan></text>
</svg>