<?xml version="1.0" encoding="UTF-8"?>
<!DOCTYPE svg PUBLIC "-//W3C//DTD SVG 1.1//EN" "http://www.w3.org/Graphics/SVG/1.1/DTD/svg11.dtd">
<svg width="160mm" height="90mm" viewBox="0 0 16000 9000" version="1.1" baseProfile="tiny" xmlns="http://www.w3.org/2000/svg" stroke-width="28.222" stroke-linejoin="round" xml:space="preserve">
 <path fill="rgb(255,255,255)" stroke="none" d="M 7997,9005 L 0,9005 0,0 15993,0 15993,9005 7997,9005 Z"/>
 <path fill="none" stroke="rgb(179,179,179)" stroke-linejoin="round" d="M 6755,8178 L 1951,8178 1951,380 11559,380 11559,8178 6755,8178 Z"/>
 <path fill="none" stroke="rgb(179,179,179)" stroke-linejoin="round" d="M 11559,8177 L 1951,8177"/>
 <path fill="none" stroke="rgb(179,179,179)" stroke-linejoin="round" d="M 11559,7397 L 1951,7397"/>
 <path fill="none" stroke="rgb(179,179,179)" stroke-linejoin="round" d="M 11559,6617 L 1951,6617"/>
 <path fill="none" stroke="rgb(179,179,179)" stroke-linejoin="round" d="M 11559,5837 L 1951,5837"/>
 <path fill="none" stroke="rgb(179,179,179)" stroke-linejoin="round" d="M 11559,5057 L 1951,5057"/>
 <path fill="none" stroke="rgb(179,179,179)" stroke-linejoin="round" d="M 11559,4278 L 1951,4278"/>
 <path fill="none" stroke="rgb(179,179,179)" stroke-linejoin="round" d="M 11559,3498 L 1951,3498"/>
 <path fill="none" stroke="rgb(179,179,179)" stroke-linejoin="round" d="M 11559,2718 L 1951,2718"/>
 <path fill="none" stroke="rgb(179,179,179)" stroke-linejoin="round" d="M 11559,1938 L 1951,1938"/>
 <path fill="none" stroke="rgb(179,179,179)" stroke-linejoin="round" d="M 11559,1158 L 1951,1158"/>
 <path fill="none" stroke="rgb(179,179,179)" stroke-linejoin="round" d="M 11559,378 L 1951,378"/>
 <path fill="none" stroke="rgb(179,179,179)" stroke-linejoin="round" d="M 1951,8327 L 1951,8177"/>
 <path fill="none" stroke="rgb(179,179,179)" stroke-linejoin="round" d="M 1951,8327 L 1951,8177"/>
 <path fill="none" stroke="rgb(179,179,179)" stroke-linejoin="round" d="M 11559,8327 L 11559,8177"/>
 <path fill="none" stroke="rgb(179,179,179)" stroke-linejoin="round" d="M 11559,8327 L 11559,8177"/>
 <path fill="none" stroke="rgb(179,179,179)" stroke-linejoin="round" d="M 1951,8177 L 11559,8177"/>
 <path fill="none" stroke="rgb(179,179,179)" stroke-linejoin="round" d="M 1801,8177 L 1951,8177"/>
 <path fill="none" stroke="rgb(179,179,179)" stroke-linejoin="round" d="M 1801,8177 L 1951,8177"/>
 <path fill="none" stroke="rgb(179,179,179)" stroke-linejoin="round" d="M 1801,7397 L 1951,7397"/>
 <path fill="none" stroke="rgb(179,179,179)" stroke-linejoin="round" d="M 1801,7397 L 1951,7397"/>
 <path fill="none" stroke="rgb(179,179,179)" stroke-linejoin="round" d="M 1801,6617 L 1951,6617"/>
 <path fill="none" stroke="rgb(179,179,179)" stroke-linejoin="round" d="M 1801,6617 L 1951,6617"/>
 <path fill="none" stroke="rgb(179,179,179)" stroke-linejoin="round" d="M 1801,5837 L 1951,5837"/>
 <path fill="none" stroke="rgb(179,179,179)" stroke-linejoin="round" d="M 1801,5837 L 1951,5837"/>
 <path fill="none" stroke="rgb(179,179,179)" stroke-linejoin="round" d="M 1801,5057 L 1951,5057"/>
 <path fill="none" stroke="rgb(179,179,179)" stroke-linejoin="round" d="M 1801,5057 L 1951,5057"/>
 <path fill="none" stroke="rgb(179,179,179)" stroke-linejoin="round" d="M 1801,4278 L 1951,4278"/>
 <path fill="none" stroke="rgb(179,179,179)" stroke-linejoin="round" d="M 1801,4278 L 1951,4278"/>
 <path fill="none" stroke="rgb(179,179,179)" stroke-linejoin="round" d="M 1801,3498 L 1951,3498"/>
 <path fill="none" stroke="rgb(179,179,179)" stroke-linejoin="round" d="M 1801,3498 L 1951,3498"/>
 <path fill="none" stroke="rgb(179,179,179)" stroke-linejoin="round" d="M 1801,2718 L 1951,2718"/>
 <path fill="none" stroke="rgb(179,179,179)" stroke-linejoin="round" d="M 1801,2718 L 1951,2718"/>
 <path fill="none" stroke="rgb(179,179,179)" stroke-linejoin="round" d="M 1801,1938 L 1951,1938"/>
 <path fill="none" stroke="rgb(179,179,179)" stroke-linejoin="round" d="M 1801,1938 L 1951,1938"/>
 <path fill="none" stroke="rgb(179,179,179)" stroke-linejoin="round" d="M 1801,1158 L 1951,1158"/>
 <path fill="none" stroke="rgb(179,179,179)" stroke-linejoin="round" d="M 1801,1158 L 1951,1158"/>
 <path fill="none" stroke="rgb(179,179,179)" stroke-linejoin="round" d="M 1801,378 L 1951,378"/>
 <path fill="none" stroke="rgb(179,179,179)" stroke-linejoin="round" d="M 1801,378 L 1951,378"/>
 <path fill="none" stroke="rgb(179,179,179)" stroke-linejoin="round" d="M 1951,8177 L 1951,378"/>
 <path fill="rgb(0,69,134)" stroke="none" d="M 2217,8177 L 2751,8177 2751,6332 2217,6332 2217,8177 Z"/>
 <path fill="rgb(255,66,14)" stroke="none" d="M 2751,8177 L 3285,8177 3285,6112 2751,6112 2751,8177 Z"/>
 <path fill="rgb(255,211,32)" stroke="none" d="M 3285,8177 L 3819,8177 3819,378 3285,378 3285,8177 Z"/>
 <path fill="rgb(87,157,28)" stroke="none" d="M 3819,8177 L 4353,8177 4353,4297 3819,4297 3819,8177 Z"/>
 <path fill="rgb(126,0,33)" stroke="none" d="M 4353,8177 L 4887,8177 4887,378 4353,378 4353,8177 Z"/>
 <path fill="rgb(131,202,255)" stroke="none" d="M 4887,8177 L 5420,8177 5420,5104 4887,5104 4887,8177 Z"/>
 <path fill="rgb(49,64,4)" stroke="none" d="M 5420,8177 L 5954,8177 5954,6687 5420,6687 5420,8177 Z"/>
 <path fill="rgb(174,207,0)" stroke="none" d="M 5954,8177 L 6488,8177 6488,6524 5954,6524 5954,8177 Z"/>
 <path fill="rgb(75,31,111)" stroke="none" d="M 6488,8177 L 7022,8177 7022,378 6488,378 6488,8177 Z"/>
 <path fill="rgb(255,149,14)" stroke="none" d="M 7022,8177 L 7556,8177 7556,8164 7022,8164 7022,8177 Z"/>
 <path fill="rgb(197,0,11)" stroke="none" d="M 7556,8177 L 8089,8177 8089,3582 7556,3582 7556,8177 Z"/>
 <path fill="rgb(0,132,209)" stroke="none" d="M 8089,8177 L 8622,8177 8622,5027 8089,5027 8089,8177 Z"/>
 <path fill="rgb(0,69,134)" stroke="none" d="M 8622,8177 L 9156,8177 9156,4547 8622,4547 8622,8177 Z"/>
 <path fill="rgb(255,66,14)" stroke="none" d="M 9156,8177 L 9690,8177 9690,6120 9156,6120 9156,8177 Z"/>
 <path fill="rgb(255,211,32)" stroke="none" d="M 9690,8177 L 10224,8177 10224,6570 9690,6570 9690,8177 Z"/>
 <path fill="rgb(87,157,28)" stroke="none" d="M 10224,8177 L 10758,8177 10758,6413 10224,6413 10224,8177 Z"/>
 <path fill="rgb(126,0,33)" stroke="none" d="M 10758,8177 L 11292,8177 11292,3422 10758,3422 10758,8177 Z"/>
 <text class="TextShape"><tspan class="TextParagraph" font-family="Liberation Sans" font-size="353px" font-weight="400"><tspan class="TextPosition" x="6080" y="8745"/><tspan class="TextPosition" x="6080" y="8745"><tspan fill="rgb(0,0,0)" stroke="none">MajorGC</tspan></tspan></tspan></text>
 <text class="TextShape"><tspan class="TextParagraph" font-family="Liberation Sans" font-size="353px" font-weight="400"><tspan class="TextPosition" x="1516" y="8298"/><tspan class="TextPosition" x="1516" y="8298"><tspan fill="rgb(0,0,0)" stroke="none">0</tspan></tspan></tspan></text>
 <text class="TextShape"><tspan class="TextParagraph" font-family="Liberation Sans" font-size="353px" font-weight="400"><tspan class="TextPosition" x="1516" y="7518"/><tspan class="TextPosition" x="1516" y="7518"><tspan fill="rgb(0,0,0)" stroke="none">5</tspan></tspan></tspan></text>
 <text class="TextShape"><tspan class="TextParagraph" font-family="Liberation Sans" font-size="353px" font-weight="400"><tspan class="TextPosition" x="1331" y="6738"/><tspan class="TextPosition" x="1331" y="6738"><tspan fill="rgb(0,0,0)" stroke="none">10</tspan></tspan></tspan></text>
 <text class="TextShape"><tspan class="TextParagraph" font-family="Liberation Sans" font-size="353px" font-weight="400"><tspan class="TextPosition" x="1331" y="5958"/><tspan class="TextPosition" x="1331" y="5958"><tspan fill="rgb(0,0,0)" stroke="none">15</tspan></tspan></tspan></text>
 <text class="TextShape"><tspan class="TextParagraph" font-family="Liberation Sans" font-size="353px" font-weight="400"><tspan class="TextPosition" x="1331" y="5178"/><tspan class="TextPosition" x="1331" y="5178"><tspan fill="rgb(0,0,0)" stroke="none">20</tspan></tspan></tspan></text>
 <text class="TextShape"><tspan class="TextParagraph" font-family="Liberation Sans" font-size="353px" font-weight="400"><tspan class="TextPosition" x="1331" y="4398"/><tspan class="TextPosition" x="1331" y="4398"><tspan fill="rgb(0,0,0)" stroke="none">25</tspan></tspan></tspan></text>
 <text class="TextShape"><tspan class="TextParagraph" font-family="Liberation Sans" font-size="353px" font-weight="400"><tspan class="TextPosition" x="1331" y="3618"/><tspan class="TextPosition" x="1331" y="3618"><tspan fill="rgb(0,0,0)" stroke="none">30</tspan></tspan></tspan></text>
 <text class="TextShape"><tspan class="TextParagraph" font-family="Liberation Sans" font-size="353px" font-weight="400"><tspan class="TextPosition" x="1331" y="2838"/><tspan class="TextPosition" x="1331" y="2838"><tspan fill="rgb(0,0,0)" stroke="none">35</tspan></tspan></tspan></text>
 <text class="TextShape"><tspan class="TextParagraph" font-family="Liberation Sans" font-size="353px" font-weight="400"><tspan class="TextPosition" x="1331" y="2058"/><tspan class="TextPosition" x="1331" y="2058"><tspan fill="rgb(0,0,0)" stroke="none">40</tspan></tspan></tspan></text>
 <text class="TextShape"><tspan class="TextParagraph" font-family="Liberation Sans" font-size="353px" font-weight="400"><tspan class="TextPosition" x="1331" y="1278"/><tspan class="TextPosition" x="1331" y="1278"><tspan fill="rgb(0,0,0)" stroke="none">45</tspan></tspan></tspan></text>
 <text class="TextShape"><tspan class="TextParagraph" font-family="Liberation Sans" font-size="353px" font-weight="400"><tspan class="TextPosition" x="1331" y="498"/><tspan class="TextPosition" x="1331" y="498"><tspan fill="rgb(0,0,0)" stroke="none">50</tspan></tspan></tspan></text>
 <path fill="rgb(0,69,134)" stroke="none" d="M 12100,624 L 11994,624 11994,413 12205,413 12205,624 12100,624 Z"/>
 <path fill="rgb(255,66,14)" stroke="none" d="M 12100,1122 L 11994,1122 11994,911 12205,911 12205,1122 12100,1122 Z"/>
 <path fill="rgb(255,211,32)" stroke="none" d="M 12100,1620 L 11994,1620 11994,1409 12205,1409 12205,1620 12100,1620 Z"/>
 <path fill="rgb(87,157,28)" stroke="none" d="M 12100,2118 L 11994,2118 11994,1907 12205,1907 12205,2118 12100,2118 Z"/>
 <path fill="rgb(126,0,33)" stroke="none" d="M 12100,2616 L 11994,2616 11994,2405 12205,2405 12205,2616 12100,2616 Z"/>
 <path fill="rgb(131,202,255)" stroke="none" d="M 12100,3114 L 11994,3114 11994,2903 12205,2903 12205,3114 12100,3114 Z"/>
 <path fill="rgb(49,64,4)" stroke="none" d="M 12100,3612 L 11994,3612 11994,3401 12205,3401 12205,3612 12100,3612 Z"/>
 <path fill="rgb(174,207,0)" stroke="none" d="M 12100,4110 L 11994,4110 11994,3899 12205,3899 12205,4110 12100,4110 Z"/>
 <path fill="rgb(75,31,111)" stroke="none" d="M 12100,4607 L 11994,4607 11994,4397 12205,4397 12205,4607 12100,4607 Z"/>
 <path fill="rgb(255,149,14)" stroke="none" d="M 12100,5105 L 11994,5105 11994,4894 12205,4894 12205,5105 12100,5105 Z"/>
 <path fill="rgb(197,0,11)" stroke="none" d="M 12100,5603 L 11994,5603 11994,5392 12205,5392 12205,5603 12100,5603 Z"/>
 <path fill="rgb(0,132,209)" stroke="none" d="M 12100,6101 L 11994,6101 11994,5890 12205,5890 12205,6101 12100,6101 Z"/>
 <path fill="rgb(0,69,134)" stroke="none" d="M 12100,6599 L 11994,6599 11994,6388 12205,6388 12205,6599 12100,6599 Z"/>
 <path fill="rgb(255,66,14)" stroke="none" d="M 12100,7097 L 11994,7097 11994,6886 12205,6886 12205,7097 12100,7097 Z"/>
 <path fill="rgb(255,211,32)" stroke="none" d="M 12100,7595 L 11994,7595 11994,7384 12205,7384 12205,7595 12100,7595 Z"/>
 <path fill="rgb(87,157,28)" stroke="none" d="M 12100,8093 L 11994,8093 11994,7882 12205,7882 12205,8093 12100,8093 Z"/>
 <path fill="rgb(126,0,33)" stroke="none" d="M 12100,8591 L 11994,8591 11994,8380 12205,8380 12205,8591 12100,8591 Z"/>
 <text class="TextShape"><tspan class="TextParagraph" font-family="Liberation Sans" font-size="353px" font-weight="400"><tspan class="TextPosition" x="12305" y="638"/><tspan class="TextPosition" x="12305" y="638"><tspan fill="rgb(0,0,0)" stroke="none">react</tspan></tspan></tspan></text>
 <text class="TextShape"><tspan class="TextParagraph" font-family="Liberation Sans" font-size="353px" font-weight="400"><tspan class="TextPosition" x="12305" y="1136"/><tspan class="TextPosition" x="12305" y="1136"><tspan fill="rgb(0,0,0)" stroke="none">react_keys</tspan></tspan></tspan></text>
 <text class="TextShape"><tspan class="TextParagraph" font-family="Liberation Sans" font-size="353px" font-weight="400"><tspan class="TextPosition" x="12305" y="1634"/><tspan class="TextPosition" x="12305" y="1634"><tspan fill="rgb(0,0,0)" stroke="none">ember</tspan></tspan></tspan></text>
 <text class="TextShape"><tspan class="TextParagraph" font-family="Liberation Sans" font-size="353px" font-weight="400"><tspan class="TextPosition" x="12305" y="2132"/><tspan class="TextPosition" x="12305" y="2132"><tspan fill="rgb(0,0,0)" stroke="none">ember_keys</tspan></tspan></tspan></text>
 <text class="TextShape"><tspan class="TextParagraph" font-family="Liberation Sans" font-size="353px" font-weight="400"><tspan class="TextPosition" x="12305" y="2630"/><tspan class="TextPosition" x="12305" y="2630"><tspan fill="rgb(0,0,0)" stroke="none">ember2</tspan></tspan></tspan></text>
 <text class="TextShape"><tspan class="TextParagraph" font-family="Liberation Sans" font-size="353px" font-weight="400"><tspan class="TextPosition" x="12305" y="3128"/><tspan class="TextPosition" x="12305" y="3128"><tspan fill="rgb(0,0,0)" stroke="none">ember2_keys</tspan></tspan></tspan></text>
 <text class="TextShape"><tspan class="TextParagraph" font-family="Liberation Sans" font-size="353px" font-weight="400"><tspan class="TextPosition" x="12305" y="3626"/><tspan class="TextPosition" x="12305" y="3626"><tspan fill="rgb(0,0,0)" stroke="none">incrementaldom</tspan></tspan></tspan></text>
 <text class="TextShape"><tspan class="TextParagraph" font-family="Liberation Sans" font-size="353px" font-weight="400"><tspan class="TextPosition" x="12305" y="4124"/><tspan class="TextPosition" x="12305" y="4124"><tspan fill="rgb(0,0,0)" stroke="none">incrementaldom_keys</tspan></tspan></tspan></text>
 <text class="TextShape"><tspan class="TextParagraph" font-family="Liberation Sans" font-size="353px" font-weight="400"><tspan class="TextPosition" x="12305" y="4621"/><tspan class="TextPosition" x="12305" y="4621"><tspan fill="rgb(0,0,0)" stroke="none">angular1</tspan></tspan></tspan></text>
 <text class="TextShape"><tspan class="TextParagraph" font-family="Liberation Sans" font-size="353px" font-weight="400"><tspan class="TextPosition" x="12305" y="5119"/><tspan class="TextPosition" x="12305" y="5119"><tspan fill="rgb(0,0,0)" stroke="none">angular1_trackby</tspan></tspan></tspan></text>
 <text class="TextShape"><tspan class="TextParagraph" font-family="Liberation Sans" font-size="353px" font-weight="400"><tspan class="TextPosition" x="12305" y="5617"/><tspan class="TextPosition" x="12305" y="5617"><tspan fill="rgb(0,0,0)" stroke="none">angular2</tspan></tspan></tspan></text>
 <text class="TextShape"><tspan class="TextParagraph" font-family="Liberation Sans" font-size="353px" font-weight="400"><tspan class="TextPosition" x="12305" y="6115"/><tspan class="TextPosition" x="12305" y="6115"><tspan fill="rgb(0,0,0)" stroke="none">mithril</tspan></tspan></tspan></text>
 <text class="TextShape"><tspan class="TextParagraph" font-family="Liberation Sans" font-size="353px" font-weight="400"><tspan class="TextPosition" x="12305" y="6613"/><tspan class="TextPosition" x="12305" y="6613"><tspan fill="rgb(0,0,0)" stroke="none">mithril_keys</tspan></tspan></tspan></text>
 <text class="TextShape"><tspan class="TextParagraph" font-family="Liberation Sans" font-size="353px" font-weight="400"><tspan class="TextPosition" x="12305" y="7111"/><tspan class="TextPosition" x="12305" y="7111"><tspan fill="rgb(0,0,0)" stroke="none">virtualdom</tspan></tspan></tspan></text>
 <text class="TextShape"><tspan class="TextParagraph" font-family="Liberation Sans" font-size="353px" font-weight="400"><tspan class="TextPosition" x="12305" y="7609"/><tspan class="TextPosition" x="12305" y="7609"><tspan fill="rgb(0,0,0)" stroke="none">virtualdom_keys</tspan></tspan></tspan></text>
 <text class="TextShape"><tspan class="TextParagraph" font-family="Liberation Sans" font-size="353px" font-weight="400"><tspan class="TextPosition" x="12305" y="8107"/><tspan class="TextPosition" x="12305" y="8107"><tspan fill="rgb(0,0,0)" stroke="none">citojs</tspan></tspan></tspan></text>
 <text class="TextShape"><tspan class="TextParagraph" font-family="Liberation Sans" font-size="353px" font-weight="400"><tspan class="TextPosition" x="12305" y="8605"/><tspan class="TextPosition" x="12305" y="8605"><tspan fill="rgb(0,0,0)" stroke="none">citojs_keys</tspan></tspan></tspan></text>
 <text class="TextShape" transform="translate(837,5865) rotate(-90) translate(-837,-5865)"><tspan class="TextParagraph" font-family="Liberation Sans" font-size="318px" font-weight="400"><tspan class="TextPosition" x="837" y="5865"/><tspan class="TextPosition" x="837" y="5865"><tspan fill="rgb(0,0,0)" stroke="none">ms (lower is better)</tspan></tspan></tspan></text>
</svg>