<?xml version="1.0" encoding="UTF-8"?>
<!DOCTYPE svg PUBLIC "-//W3C//DTD SVG 1.1//EN" "http://www.w3.org/Graphics/SVG/1.1/DTD/svg11.dtd">
<svg width="160mm" height="90mm" viewBox="0 0 16000 9000" version="1.1" baseProfile="tiny" xmlns="http://www.w3.org/2000/svg" stroke-width="28.222" stroke-linejoin="round" xml:space="preserve">
 <path fill="rgb(255,255,255)" stroke="none" d="M 7992,9004 L 0,9004 0,0 15984,0 15984,9004 7992,9004 Z"/>
 <path fill="none" stroke="rgb(179,179,179)" stroke-linejoin="round" d="M 7307,8177 L 2137,8177 2137,379 12476,379 12476,8177 7307,8177 Z"/>
 <path fill="none" stroke="rgb(179,179,179)" stroke-linejoin="round" d="M 12476,8176 L 2137,8176"/>
 <path fill="none" stroke="rgb(179,179,179)" stroke-linejoin="round" d="M 12476,7061 L 2137,7061"/>
 <path fill="none" stroke="rgb(179,179,179)" stroke-linejoin="round" d="M 12476,5947 L 2137,5947"/>
 <path fill="none" stroke="rgb(179,179,179)" stroke-linejoin="round" d="M 12476,4833 L 2137,4833"/>
 <path fill="none" stroke="rgb(179,179,179)" stroke-linejoin="round" d="M 12476,3720 L 2137,3720"/>
 <path fill="none" stroke="rgb(179,179,179)" stroke-linejoin="round" d="M 12476,2606 L 2137,2606"/>
 <path fill="none" stroke="rgb(179,179,179)" stroke-linejoin="round" d="M 12476,1492 L 2137,1492"/>
 <path fill="none" stroke="rgb(179,179,179)" stroke-linejoin="round" d="M 12476,377 L 2137,377"/>
 <path fill="none" stroke="rgb(179,179,179)" stroke-linejoin="round" d="M 2137,8326 L 2137,8176"/>
 <path fill="none" stroke="rgb(179,179,179)" stroke-linejoin="round" d="M 2137,8326 L 2137,8176"/>
 <path fill="none" stroke="rgb(179,179,179)" stroke-linejoin="round" d="M 12476,8326 L 12476,8176"/>
 <path fill="none" stroke="rgb(179,179,179)" stroke-linejoin="round" d="M 12476,8326 L 12476,8176"/>
 <path fill="none" stroke="rgb(179,179,179)" stroke-linejoin="round" d="M 2137,8176 L 12476,8176"/>
 <path fill="none" stroke="rgb(179,179,179)" stroke-linejoin="round" d="M 1987,8176 L 2137,8176"/>
 <path fill="none" stroke="rgb(179,179,179)" stroke-linejoin="round" d="M 1987,8176 L 2137,8176"/>
 <path fill="none" stroke="rgb(179,179,179)" stroke-linejoin="round" d="M 1987,7061 L 2137,7061"/>
 <path fill="none" stroke="rgb(179,179,179)" stroke-linejoin="round" d="M 1987,7061 L 2137,7061"/>
 <path fill="none" stroke="rgb(179,179,179)" stroke-linejoin="round" d="M 1987,5947 L 2137,5947"/>
 <path fill="none" stroke="rgb(179,179,179)" stroke-linejoin="round" d="M 1987,5947 L 2137,5947"/>
 <path fill="none" stroke="rgb(179,179,179)" stroke-linejoin="round" d="M 1987,4833 L 2137,4833"/>
 <path fill="none" stroke="rgb(179,179,179)" stroke-linejoin="round" d="M 1987,4833 L 2137,4833"/>
 <path fill="none" stroke="rgb(179,179,179)" stroke-linejoin="round" d="M 1987,3720 L 2137,3720"/>
 <path fill="none" stroke="rgb(179,179,179)" stroke-linejoin="round" d="M 1987,3720 L 2137,3720"/>
 <path fill="none" stroke="rgb(179,179,179)" stroke-linejoin="round" d="M 1987,2606 L 2137,2606"/>
 <path fill="none" stroke="rgb(179,179,179)" stroke-linejoin="round" d="M 1987,2606 L 2137,2606"/>
 <path fill="none" stroke="rgb(179,179,179)" stroke-linejoin="round" d="M 1987,1492 L 2137,1492"/>
 <path fill="none" stroke="rgb(179,179,179)" stroke-linejoin="round" d="M 1987,1492 L 2137,1492"/>
 <path fill="none" stroke="rgb(179,179,179)" stroke-linejoin="round" d="M 1987,377 L 2137,377"/>
 <path fill="none" stroke="rgb(179,179,179)" stroke-linejoin="round" d="M 1987,377 L 2137,377"/>
 <path fill="none" stroke="rgb(179,179,179)" stroke-linejoin="round" d="M 2137,8176 L 2137,377"/>
 <path fill="rgb(0,69,134)" stroke="none" d="M 2654,8176 L 3688,8176 3688,7601 2654,7601 2654,8176 Z"/>
 <path fill="rgb(255,66,14)" stroke="none" d="M 3687,8176 L 4722,8176 4722,3054 3687,3054 3687,8176 Z"/>
 <path fill="rgb(255,211,32)" stroke="none" d="M 4722,8176 L 5756,8176 5756,4870 4722,4870 4722,8176 Z"/>
 <path fill="rgb(87,157,28)" stroke="none" d="M 5756,8176 L 6790,8176 6790,7760 5756,7760 5756,8176 Z"/>
 <path fill="rgb(126,0,33)" stroke="none" d="M 6790,8176 L 7824,8176 7824,1209 6790,1209 6790,8176 Z"/>
 <path fill="rgb(131,202,255)" stroke="none" d="M 7824,8176 L 8857,8176 8857,6578 7824,6578 7824,8176 Z"/>
 <path fill="rgb(49,64,4)" stroke="none" d="M 8857,8176 L 9891,8176 9891,6242 8857,6242 8857,8176 Z"/>
 <path fill="rgb(174,207,0)" stroke="none" d="M 9891,8176 L 10925,8176 10925,6370 9891,6370 9891,8176 Z"/>
 <path fill="rgb(75,31,111)" stroke="none" d="M 10925,8176 L 11959,8176 11959,5458 10925,5458 10925,8176 Z"/>
 <text class="TextShape"><tspan class="TextParagraph" font-family="Liberation Sans" font-size="353px" font-weight="400"><tspan class="TextPosition" x="6632" y="8744"/><tspan class="TextPosition" x="6632" y="8744"><tspan fill="rgb(0,0,0)" stroke="none">MinorGC</tspan></tspan></tspan></text>
 <text class="TextShape"><tspan class="TextParagraph" font-family="Liberation Sans" font-size="353px" font-weight="400"><tspan class="TextPosition" x="1702" y="8297"/><tspan class="TextPosition" x="1702" y="8297"><tspan fill="rgb(0,0,0)" stroke="none">0</tspan></tspan></tspan></text>
 <text class="TextShape"><tspan class="TextParagraph" font-family="Liberation Sans" font-size="353px" font-weight="400"><tspan class="TextPosition" x="1517" y="7182"/><tspan class="TextPosition" x="1517" y="7182"><tspan fill="rgb(0,0,0)" stroke="none">50</tspan></tspan></tspan></text>
 <text class="TextShape"><tspan class="TextParagraph" font-family="Liberation Sans" font-size="353px" font-weight="400"><tspan class="TextPosition" x="1331" y="6068"/><tspan class="TextPosition" x="1331" y="6068"><tspan fill="rgb(0,0,0)" stroke="none">100</tspan></tspan></tspan></text>
 <text class="TextShape"><tspan class="TextParagraph" font-family="Liberation Sans" font-size="353px" font-weight="400"><tspan class="TextPosition" x="1331" y="4954"/><tspan class="TextPosition" x="1331" y="4954"><tspan fill="rgb(0,0,0)" stroke="none">150</tspan></tspan></tspan></text>
 <text class="TextShape"><tspan class="TextParagraph" font-family="Liberation Sans" font-size="353px" font-weight="400"><tspan class="TextPosition" x="1331" y="3840"/><tspan class="TextPosition" x="1331" y="3840"><tspan fill="rgb(0,0,0)" stroke="none">200</tspan></tspan></tspan></text>
 <text class="TextShape"><tspan class="TextParagraph" font-family="Liberation Sans" font-size="353px" font-weight="400"><tspan class="TextPosition" x="1331" y="2726"/><tspan class="TextPosition" x="1331" y="2726"><tspan fill="rgb(0,0,0)" stroke="none">250</tspan></tspan></tspan></text>
 <text class="TextShape"><tspan class="TextParagraph" font-family="Liberation Sans" font-size="353px" font-weight="400"><tspan class="TextPosition" x="1331" y="1612"/><tspan class="TextPosition" x="1331" y="1612"><tspan fill="rgb(0,0,0)" stroke="none">300</tspan></tspan></tspan></text>
 <text class="TextShape"><tspan class="TextParagraph" font-family="Liberation Sans" font-size="353px" font-weight="400"><tspan class="TextPosition" x="1331" y="497"/><tspan class="TextPosition" x="1331" y="497"><tspan fill="rgb(0,0,0)" stroke="none">350</tspan></tspan></tspan></text>
 <path fill="rgb(0,69,134)" stroke="none" d="M 13017,2615 L 12911,2615 12911,2404 13122,2404 13122,2615 13017,2615 Z"/>
 <path fill="rgb(255,66,14)" stroke="none" d="M 13017,3113 L 12911,3113 12911,2902 13122,2902 13122,3113 13017,3113 Z"/>
 <path fill="rgb(255,211,32)" stroke="none" d="M 13017,3611 L 12911,3611 12911,3400 13122,3400 13122,3611 13017,3611 Z"/>
 <path fill="rgb(87,157,28)" stroke="none" d="M 13017,4109 L 12911,4109 12911,3898 13122,3898 13122,4109 13017,4109 Z"/>
 <path fill="rgb(126,0,33)" stroke="none" d="M 13017,4606 L 12911,4606 12911,4396 13122,4396 13122,4606 13017,4606 Z"/>
 <path fill="rgb(131,202,255)" stroke="none" d="M 13017,5104 L 12911,5104 12911,4893 13122,4893 13122,5104 13017,5104 Z"/>
 <path fill="rgb(49,64,4)" stroke="none" d="M 13017,5602 L 12911,5602 12911,5391 13122,5391 13122,5602 13017,5602 Z"/>
 <path fill="rgb(174,207,0)" stroke="none" d="M 13017,6100 L 12911,6100 12911,5889 13122,5889 13122,6100 13017,6100 Z"/>
 <path fill="rgb(75,31,111)" stroke="none" d="M 13017,6598 L 12911,6598 12911,6387 13122,6387 13122,6598 13017,6598 Z"/>
 <text class="TextShape"><tspan class="TextParagraph" font-family="Liberation Sans" font-size="353px" font-weight="400"><tspan class="TextPosition" x="13222" y="2629"/><tspan class="TextPosition" x="13222" y="2629"><tspan fill="rgb(0,0,0)" stroke="none">react</tspan></tspan></tspan></text>
 <text class="TextShape"><tspan class="TextParagraph" font-family="Liberation Sans" font-size="353px" font-weight="400"><tspan class="TextPosition" x="13222" y="3127"/><tspan class="TextPosition" x="13222" y="3127"><tspan fill="rgb(0,0,0)" stroke="none">ember</tspan></tspan></tspan></text>
 <text class="TextShape"><tspan class="TextParagraph" font-family="Liberation Sans" font-size="353px" font-weight="400"><tspan class="TextPosition" x="13222" y="3625"/><tspan class="TextPosition" x="13222" y="3625"><tspan fill="rgb(0,0,0)" stroke="none">ember2</tspan></tspan></tspan></text>
 <text class="TextShape"><tspan class="TextParagraph" font-family="Liberation Sans" font-size="353px" font-weight="400"><tspan class="TextPosition" x="13222" y="4123"/><tspan class="TextPosition" x="13222" y="4123"><tspan fill="rgb(0,0,0)" stroke="none">incrementaldom</tspan></tspan></tspan></text>
 <text class="TextShape"><tspan class="TextParagraph" font-family="Liberation Sans" font-size="353px" font-weight="400"><tspan class="TextPosition" x="13222" y="4620"/><tspan class="TextPosition" x="13222" y="4620"><tspan fill="rgb(0,0,0)" stroke="none">angular1</tspan></tspan></tspan></text>
 <text class="TextShape"><tspan class="TextParagraph" font-family="Liberation Sans" font-size="353px" font-weight="400"><tspan class="TextPosition" x="13222" y="5118"/><tspan class="TextPosition" x="13222" y="5118"><tspan fill="rgb(0,0,0)" stroke="none">angular2</tspan></tspan></tspan></text>
 <text class="TextShape"><tspan class="TextParagraph" font-family="Liberation Sans" font-size="353px" font-weight="400"><tspan class="TextPosition" x="13222" y="5616"/><tspan class="TextPosition" x="13222" y="5616"><tspan fill="rgb(0,0,0)" stroke="none">mithril</tspan></tspan></tspan></text>
 <text class="TextShape"><tspan class="TextParagraph" font-family="Liberation Sans" font-size="353px" font-weight="400"><tspan class="TextPosition" x="13222" y="6114"/><tspan class="TextPosition" x="13222" y="6114"><tspan fill="rgb(0,0,0)" stroke="none">virtualdom</tspan></tspan></tspan></text>
 <text class="TextShape"><tspan class="TextParagraph" font-family="Liberation Sans" font-size="353px" font-weight="400"><tspan class="TextPosition" x="13222" y="6612"/><tspan class="TextPosition" x="13222" y="6612"><tspan fill="rgb(0,0,0)" stroke="none">citojs</tspan></tspan></tspan></text>
 <text class="TextShape" transform="translate(837,6380) rotate(-90) translate(-837,-6380)"><tspan class="TextParagraph" font-family="Liberation Sans" font-size="318px" font-weight="400"><tspan class="TextPosition" x="837" y="6380"/><tspan class="TextPosition" x="837" y="6380"><tspan fill="rgb(0,0,0)" stroke="none">time in ms (lower is better)</tspan></tspan></tspan></text>
</svg>