<?xml version="1.0" encoding="UTF-8"?>
<!DOCTYPE svg PUBLIC "-//W3C//DTD SVG 1.1//EN" "http://www.w3.org/Graphics/SVG/1.1/DTD/svg11.dtd">
<svg width="160mm" height="90mm" viewBox="0 0 16000 9000" version="1.1" baseProfile="tiny" xmlns="http://www.w3.org/2000/svg" stroke-width="28.222" stroke-linejoin="round" xml:space="preserve">
 <path fill="rgb(255,255,255)" stroke="none" d="M 7992,9004 L 0,9004 0,0 15983,0 15983,9004 7992,9004 Z"/>
 <path fill="none" stroke="rgb(179,179,179)" stroke-linejoin="round" d="M 7862,8177 L 3248,8177 3248,379 12475,379 12475,8177 7862,8177 Z"/>
 <path fill="none" stroke="rgb(179,179,179)" stroke-linejoin="round" d="M 12475,8176 L 3248,8176"/>
 <path fill="none" stroke="rgb(179,179,179)" stroke-linejoin="round" d="M 12475,7201 L 3248,7201"/>
 <path fill="none" stroke="rgb(179,179,179)" stroke-linejoin="round" d="M 12475,6226 L 3248,6226"/>
 <path fill="none" stroke="rgb(179,179,179)" stroke-linejoin="round" d="M 12475,5251 L 3248,5251"/>
 <path fill="none" stroke="rgb(179,179,179)" stroke-linejoin="round" d="M 12475,4277 L 3248,4277"/>
 <path fill="none" stroke="rgb(179,179,179)" stroke-linejoin="round" d="M 12475,3302 L 3248,3302"/>
 <path fill="none" stroke="rgb(179,179,179)" stroke-linejoin="round" d="M 12475,2327 L 3248,2327"/>
 <path fill="none" stroke="rgb(179,179,179)" stroke-linejoin="round" d="M 12475,1352 L 3248,1352"/>
 <path fill="none" stroke="rgb(179,179,179)" stroke-linejoin="round" d="M 12475,378 L 3248,378"/>
 <path fill="none" stroke="rgb(179,179,179)" stroke-linejoin="round" d="M 3248,8326 L 3248,8176"/>
 <path fill="none" stroke="rgb(179,179,179)" stroke-linejoin="round" d="M 3248,8326 L 3248,8176"/>
 <path fill="none" stroke="rgb(179,179,179)" stroke-linejoin="round" d="M 12475,8326 L 12475,8176"/>
 <path fill="none" stroke="rgb(179,179,179)" stroke-linejoin="round" d="M 12475,8326 L 12475,8176"/>
 <path fill="none" stroke="rgb(179,179,179)" stroke-linejoin="round" d="M 3248,8176 L 12475,8176"/>
 <path fill="none" stroke="rgb(179,179,179)" stroke-linejoin="round" d="M 3098,8176 L 3248,8176"/>
 <path fill="none" stroke="rgb(179,179,179)" stroke-linejoin="round" d="M 3098,8176 L 3248,8176"/>
 <path fill="none" stroke="rgb(179,179,179)" stroke-linejoin="round" d="M 3098,7201 L 3248,7201"/>
 <path fill="none" stroke="rgb(179,179,179)" stroke-linejoin="round" d="M 3098,7201 L 3248,7201"/>
 <path fill="none" stroke="rgb(179,179,179)" stroke-linejoin="round" d="M 3098,6226 L 3248,6226"/>
 <path fill="none" stroke="rgb(179,179,179)" stroke-linejoin="round" d="M 3098,6226 L 3248,6226"/>
 <path fill="none" stroke="rgb(179,179,179)" stroke-linejoin="round" d="M 3098,5251 L 3248,5251"/>
 <path fill="none" stroke="rgb(179,179,179)" stroke-linejoin="round" d="M 3098,5251 L 3248,5251"/>
 <path fill="none" stroke="rgb(179,179,179)" stroke-linejoin="round" d="M 3098,4277 L 3248,4277"/>
 <path fill="none" stroke="rgb(179,179,179)" stroke-linejoin="round" d="M 3098,4277 L 3248,4277"/>
 <path fill="none" stroke="rgb(179,179,179)" stroke-linejoin="round" d="M 3098,3302 L 3248,3302"/>
 <path fill="none" stroke="rgb(179,179,179)" stroke-linejoin="round" d="M 3098,3302 L 3248,3302"/>
 <path fill="none" stroke="rgb(179,179,179)" stroke-linejoin="round" d="M 3098,2327 L 3248,2327"/>
 <path fill="none" stroke="rgb(179,179,179)" stroke-linejoin="round" d="M 3098,2327 L 3248,2327"/>
 <path fill="none" stroke="rgb(179,179,179)" stroke-linejoin="round" d="M 3098,1352 L 3248,1352"/>
 <path fill="none" stroke="rgb(179,179,179)" stroke-linejoin="round" d="M 3098,1352 L 3248,1352"/>
 <path fill="none" stroke="rgb(179,179,179)" stroke-linejoin="round" d="M 3098,378 L 3248,378"/>
 <path fill="none" stroke="rgb(179,179,179)" stroke-linejoin="round" d="M 3098,378 L 3248,378"/>
 <path fill="none" stroke="rgb(179,179,179)" stroke-linejoin="round" d="M 3248,8176 L 3248,378"/>
 <path fill="rgb(0,69,134)" stroke="none" d="M 3709,8176 L 4632,8176 4632,6310 3709,6310 3709,8176 Z"/>
 <path fill="rgb(255,66,14)" stroke="none" d="M 4632,8176 L 5555,8176 5555,4349 4632,4349 4632,8176 Z"/>
 <path fill="rgb(255,211,32)" stroke="none" d="M 5555,8176 L 6477,8176 6477,4656 5555,4656 5555,8176 Z"/>
 <path fill="rgb(87,157,28)" stroke="none" d="M 6477,8176 L 7400,8176 7400,6760 6477,6760 6477,8176 Z"/>
 <path fill="rgb(126,0,33)" stroke="none" d="M 7400,8176 L 8322,8176 8322,1226 7400,1226 7400,8176 Z"/>
 <path fill="rgb(131,202,255)" stroke="none" d="M 8322,8176 L 9245,8176 9245,4388 8322,4388 8322,8176 Z"/>
 <path fill="rgb(49,64,4)" stroke="none" d="M 9245,8176 L 10168,8176 10168,5471 9245,5471 9245,8176 Z"/>
 <path fill="rgb(174,207,0)" stroke="none" d="M 10168,8176 L 11090,8176 11090,4720 10168,4720 10168,8176 Z"/>
 <path fill="rgb(75,31,111)" stroke="none" d="M 11090,8176 L 12013,8176 12013,6022 11090,6022 11090,8176 Z"/>
 <text class="TextShape"><tspan class="TextParagraph" font-family="Liberation Sans" font-size="353px" font-weight="400"><tspan class="TextPosition" x="6155" y="8744"/><tspan class="TextPosition" x="6155" y="8744"><tspan fill="rgb(0,0,0)" stroke="none">totalJSHeapSize_max</tspan></tspan></tspan></text>
 <text class="TextShape"><tspan class="TextParagraph" font-family="Liberation Sans" font-size="353px" font-weight="400"><tspan class="TextPosition" x="2813" y="8297"/><tspan class="TextPosition" x="2813" y="8297"><tspan fill="rgb(0,0,0)" stroke="none">0</tspan></tspan></tspan></text>
 <text class="TextShape"><tspan class="TextParagraph" font-family="Liberation Sans" font-size="353px" font-weight="400"><tspan class="TextPosition" x="1516" y="7322"/><tspan class="TextPosition" x="1516" y="7322"><tspan fill="rgb(0,0,0)" stroke="none">20000000</tspan></tspan></tspan></text>
 <text class="TextShape"><tspan class="TextParagraph" font-family="Liberation Sans" font-size="353px" font-weight="400"><tspan class="TextPosition" x="1516" y="6347"/><tspan class="TextPosition" x="1516" y="6347"><tspan fill="rgb(0,0,0)" stroke="none">40000000</tspan></tspan></tspan></text>
 <text class="TextShape"><tspan class="TextParagraph" font-family="Liberation Sans" font-size="353px" font-weight="400"><tspan class="TextPosition" x="1516" y="5372"/><tspan class="TextPosition" x="1516" y="5372"><tspan fill="rgb(0,0,0)" stroke="none">60000000</tspan></tspan></tspan></text>
 <text class="TextShape"><tspan class="TextParagraph" font-family="Liberation Sans" font-size="353px" font-weight="400"><tspan class="TextPosition" x="1516" y="4397"/><tspan class="TextPosition" x="1516" y="4397"><tspan fill="rgb(0,0,0)" stroke="none">80000000</tspan></tspan></tspan></text>
 <text class="TextShape"><tspan class="TextParagraph" font-family="Liberation Sans" font-size="353px" font-weight="400"><tspan class="TextPosition" x="1331" y="3422"/><tspan class="TextPosition" x="1331" y="3422"><tspan fill="rgb(0,0,0)" stroke="none">100000000</tspan></tspan></tspan></text>
 <text class="TextShape"><tspan class="TextParagraph" font-family="Liberation Sans" font-size="353px" font-weight="400"><tspan class="TextPosition" x="1331" y="2447"/><tspan class="TextPosition" x="1331" y="2447"><tspan fill="rgb(0,0,0)" stroke="none">120000000</tspan></tspan></tspan></text>
 <text class="TextShape"><tspan class="TextParagraph" font-family="Liberation Sans" font-size="353px" font-weight="400"><tspan class="TextPosition" x="1331" y="1472"/><tspan class="TextPosition" x="1331" y="1472"><tspan fill="rgb(0,0,0)" stroke="none">140000000</tspan></tspan></tspan></text>
 <text class="TextShape"><tspan class="TextParagraph" font-family="Liberation Sans" font-size="353px" font-weight="400"><tspan class="TextPosition" x="1331" y="498"/><tspan class="TextPosition" x="1331" y="498"><tspan fill="rgb(0,0,0)" stroke="none">160000000</tspan></tspan></tspan></text>
 <path fill="rgb(0,69,134)" stroke="none" d="M 13016,2615 L 12910,2615 12910,2404 13121,2404 13121,2615 13016,2615 Z"/>
 <path fill="rgb(255,66,14)" stroke="none" d="M 13016,3113 L 12910,3113 12910,2902 13121,2902 13121,3113 13016,3113 Z"/>
 <path fill="rgb(255,211,32)" stroke="none" d="M 13016,3611 L 12910,3611 12910,3400 13121,3400 13121,3611 13016,3611 Z"/>
 <path fill="rgb(87,157,28)" stroke="none" d="M 13016,4109 L 12910,4109 12910,3898 13121,3898 13121,4109 13016,4109 Z"/>
 <path fill="rgb(126,0,33)" stroke="none" d="M 13016,4606 L 12910,4606 12910,4396 13121,4396 13121,4606 13016,4606 Z"/>
 <path fill="rgb(131,202,255)" stroke="none" d="M 13016,5104 L 12910,5104 12910,4893 13121,4893 13121,5104 13016,5104 Z"/>
 <path fill="rgb(49,64,4)" stroke="none" d="M 13016,5602 L 12910,5602 12910,5391 13121,5391 13121,5602 13016,5602 Z"/>
 <path fill="rgb(174,207,0)" stroke="none" d="M 13016,6100 L 12910,6100 12910,5889 13121,5889 13121,6100 13016,6100 Z"/>
 <path fill="rgb(75,31,111)" stroke="none" d="M 13016,6598 L 12910,6598 12910,6387 13121,6387 13121,6598 13016,6598 Z"/>
 <text class="TextShape"><tspan class="TextParagraph" font-family="Liberation Sans" font-size="353px" font-weight="400"><tspan class="TextPosition" x="13221" y="2629"/><tspan class="TextPosition" x="13221" y="2629"><tspan fill="rgb(0,0,0)" stroke="none">react</tspan></tspan></tspan></text>
 <text class="TextShape"><tspan class="TextParagraph" font-family="Liberation Sans" font-size="353px" font-weight="400"><tspan class="TextPosition" x="13221" y="3127"/><tspan class="TextPosition" x="13221" y="3127"><tspan fill="rgb(0,0,0)" stroke="none">ember</tspan></tspan></tspan></text>
 <text class="TextShape"><tspan class="TextParagraph" font-family="Liberation Sans" font-size="353px" font-weight="400"><tspan class="TextPosition" x="13221" y="3625"/><tspan class="TextPosition" x="13221" y="3625"><tspan fill="rgb(0,0,0)" stroke="none">ember2</tspan></tspan></tspan></text>
 <text class="TextShape"><tspan class="TextParagraph" font-family="Liberation Sans" font-size="353px" font-weight="400"><tspan class="TextPosition" x="13221" y="4123"/><tspan class="TextPosition" x="13221" y="4123"><tspan fill="rgb(0,0,0)" stroke="none">incrementaldom</tspan></tspan></tspan></text>
 <text class="TextShape"><tspan class="TextParagraph" font-family="Liberation Sans" font-size="353px" font-weight="400"><tspan class="TextPosition" x="13221" y="4620"/><tspan class="TextPosition" x="13221" y="4620"><tspan fill="rgb(0,0,0)" stroke="none">angular1</tspan></tspan></tspan></text>
 <text class="TextShape"><tspan class="TextParagraph" font-family="Liberation Sans" font-size="353px" font-weight="400"><tspan class="TextPosition" x="13221" y="5118"/><tspan class="TextPosition" x="13221" y="5118"><tspan fill="rgb(0,0,0)" stroke="none">angular2</tspan></tspan></tspan></text>
 <text class="TextShape"><tspan class="TextParagraph" font-family="Liberation Sans" font-size="353px" font-weight="400"><tspan class="TextPosition" x="13221" y="5616"/><tspan class="TextPosition" x="13221" y="5616"><tspan fill="rgb(0,0,0)" stroke="none">mithril</tspan></tspan></tspan></text>
 <text class="TextShape"><tspan class="TextParagraph" font-family="Liberation Sans" font-size="353px" font-weight="400"><tspan class="TextPosition" x="13221" y="6114"/><tspan class="TextPosition" x="13221" y="6114"><tspan fill="rgb(0,0,0)" stroke="none">virtualdom</tspan></tspan></tspan></text>
 <text class="TextShape"><tspan class="TextParagraph" font-family="Liberation Sans" font-size="353px" font-weight="400"><tspan class="TextPosition" x="13221" y="6612"/><tspan class="TextPosition" x="13221" y="6612"><tspan fill="rgb(0,0,0)" stroke="none">citojs</tspan></tspan></tspan></text>
 <text class="TextShape" transform="translate(837,6036) rotate(-90) translate(-837,-6036)"><tspan class="TextParagraph" font-family="Liberation Sans" font-size="318px" font-weight="400"><tspan class="TextPosition" x="837" y="6036"/><tspan class="TextPosition" x="837" y="6036"><tspan fill="rgb(0,0,0)" stroke="none">bytes (lower is better)</tspan></tspan></tspan></text>
</svg>